<svg width="1920" height="50" viewBox="0 0 1920 50" fill="none" xmlns="http://www.w3.org/2000/svg">
    <path d="M0 0H1920V50H0V0Z" fill="#EEF4FF" />
    <path
        d="M1544.81 31.8711L1540.84 27.8951C1541.92 26.5699 1542.45 24.8789 1542.32 23.172C1542.2 21.465 1541.42 19.8727 1540.15 18.7243C1538.88 17.5759 1537.22 16.9593 1535.51 17.0021C1533.79 17.0449 1532.16 17.7437 1530.95 18.9541C1529.74 20.1645 1529.04 21.7939 1529 23.5051C1528.96 25.2163 1529.58 26.8785 1530.72 28.1479C1531.87 29.4173 1533.47 30.1967 1535.17 30.325C1536.88 30.4532 1538.57 29.9205 1539.9 28.8369L1543.87 32.813C1544 32.9344 1544.17 33.0015 1544.34 33C1544.51 32.9985 1544.68 32.9284 1544.8 32.8049C1544.93 32.6814 1545 32.5143 1545 32.3397C1545 32.165 1544.93 31.9968 1544.81 31.8711ZM1535.68 29.0115C1534.63 29.0115 1533.6 28.6989 1532.72 28.1134C1531.85 27.5278 1531.16 26.6956 1530.76 25.7218C1530.36 24.7481 1530.25 23.6766 1530.46 22.6429C1530.66 21.6092 1531.17 20.6596 1531.91 19.9144C1532.66 19.1691 1533.61 18.6616 1534.64 18.456C1535.68 18.2503 1536.75 18.3559 1537.72 18.7592C1538.7 19.1625 1539.53 19.8456 1540.11 20.7219C1540.7 21.5982 1541.01 22.6285 1541.01 23.6825C1541.01 25.0954 1540.45 26.4499 1539.45 27.4489C1538.45 28.4479 1537.1 29.0099 1535.68 29.0115Z"
        fill="#191E28" />
    <path
        d="M404.378 19.8182V20.9119H399.466V30H398.233V19.8182H404.378ZM405.45 30V28.9062H405.729C405.958 28.9062 406.148 28.8615 406.301 28.772C406.453 28.6792 406.576 28.5185 406.669 28.2898C406.765 28.0578 406.838 27.7363 406.887 27.3253C406.94 26.911 406.978 26.384 407.002 25.7443L407.141 22.3636H412.232V30H411.058V23.4574H408.254L408.135 26.1818C408.109 26.8082 408.052 27.3601 407.966 27.8374C407.883 28.3113 407.756 28.709 407.583 29.0305C407.414 29.352 407.189 29.594 406.907 29.7564C406.625 29.9188 406.272 30 405.848 30H405.45ZM416.632 30.179C416.148 30.179 415.709 30.0878 415.314 29.9055C414.92 29.7199 414.606 29.4531 414.374 29.1051C414.142 28.7538 414.026 28.3295 414.026 27.8324C414.026 27.3949 414.113 27.0402 414.285 26.7685C414.457 26.4934 414.688 26.2779 414.976 26.1222C415.264 25.9664 415.583 25.8504 415.931 25.7741C416.282 25.6946 416.635 25.6316 416.99 25.5852C417.454 25.5256 417.83 25.4808 418.118 25.451C418.41 25.4179 418.622 25.3632 418.754 25.2869C418.89 25.2107 418.958 25.0781 418.958 24.8892V24.8494C418.958 24.3589 418.824 23.9777 418.556 23.706C418.29 23.4342 417.888 23.2983 417.347 23.2983C416.787 23.2983 416.348 23.4209 416.03 23.6662C415.712 23.9115 415.488 24.1733 415.359 24.4517L414.245 24.054C414.444 23.59 414.709 23.2287 415.041 22.9702C415.375 22.7083 415.74 22.526 416.134 22.4233C416.532 22.3172 416.923 22.2642 417.308 22.2642C417.553 22.2642 417.835 22.294 418.153 22.3537C418.474 22.41 418.784 22.5277 419.083 22.7067C419.384 22.8857 419.634 23.1558 419.833 23.517C420.032 23.8783 420.132 24.3622 420.132 24.9688V30H418.958V28.9659H418.899C418.819 29.1316 418.686 29.3089 418.501 29.4979C418.315 29.6868 418.068 29.8475 417.76 29.9801C417.452 30.1127 417.076 30.179 416.632 30.179ZM416.811 29.125C417.275 29.125 417.666 29.0339 417.984 28.8516C418.305 28.6693 418.547 28.4339 418.71 28.1456C418.875 27.8572 418.958 27.554 418.958 27.2358V26.1619C418.909 26.2216 418.799 26.2763 418.63 26.326C418.464 26.3724 418.272 26.4138 418.053 26.4503C417.838 26.4834 417.628 26.5133 417.422 26.5398C417.22 26.563 417.056 26.5829 416.93 26.5994C416.625 26.6392 416.34 26.7038 416.075 26.7933C415.813 26.8795 415.601 27.0104 415.438 27.1861C415.279 27.3584 415.2 27.5937 415.2 27.892C415.2 28.2997 415.351 28.608 415.652 28.8168C415.957 29.0223 416.343 29.125 416.811 29.125ZM422.273 30V22.3636H425.395C426.217 22.3636 426.87 22.5492 427.354 22.9205C427.838 23.2917 428.08 23.7822 428.08 24.392C428.08 24.8561 427.942 25.2157 427.667 25.4709C427.392 25.7228 427.039 25.8935 426.608 25.983C426.89 26.0227 427.163 26.1222 427.429 26.2812C427.697 26.4403 427.919 26.6591 428.095 26.9375C428.27 27.2126 428.358 27.5507 428.358 27.9517C428.358 28.3428 428.259 28.6925 428.06 29.0007C427.861 29.3089 427.576 29.5526 427.205 29.7315C426.834 29.9105 426.39 30 425.873 30H422.273ZM423.387 28.9261H425.873C426.277 28.9261 426.593 28.83 426.822 28.6378C427.051 28.4455 427.165 28.1837 427.165 27.8523C427.165 27.4579 427.051 27.148 426.822 26.9226C426.593 26.6939 426.277 26.5795 425.873 26.5795H423.387V28.9261ZM423.387 25.5653H425.395C425.71 25.5653 425.98 25.5223 426.206 25.4361C426.431 25.3466 426.603 25.2206 426.723 25.0582C426.845 24.8925 426.907 24.697 426.907 24.4716C426.907 24.1501 426.772 23.8982 426.504 23.7159C426.235 23.5303 425.866 23.4375 425.395 23.4375H423.387V25.5653ZM435.245 25.6449V26.7386H431.029V25.6449H435.245ZM431.308 22.3636V30H430.134V22.3636H431.308ZM436.14 22.3636V30H434.967V22.3636H436.14ZM440.53 30.179C440.046 30.179 439.607 30.0878 439.213 29.9055C438.818 29.7199 438.505 29.4531 438.273 29.1051C438.041 28.7538 437.925 28.3295 437.925 27.8324C437.925 27.3949 438.011 27.0402 438.183 26.7685C438.356 26.4934 438.586 26.2779 438.874 26.1222C439.163 25.9664 439.481 25.8504 439.829 25.7741C440.18 25.6946 440.533 25.6316 440.888 25.5852C441.352 25.5256 441.728 25.4808 442.017 25.451C442.308 25.4179 442.52 25.3632 442.653 25.2869C442.789 25.2107 442.857 25.0781 442.857 24.8892V24.8494C442.857 24.3589 442.722 23.9777 442.454 23.706C442.189 23.4342 441.786 23.2983 441.246 23.2983C440.686 23.2983 440.247 23.4209 439.928 23.6662C439.61 23.9115 439.387 24.1733 439.257 24.4517L438.144 24.054C438.343 23.59 438.608 23.2287 438.939 22.9702C439.274 22.7083 439.638 22.526 440.033 22.4233C440.431 22.3172 440.822 22.2642 441.206 22.2642C441.451 22.2642 441.733 22.294 442.051 22.3537C442.373 22.41 442.683 22.5277 442.981 22.7067C443.283 22.8857 443.533 23.1558 443.732 23.517C443.931 23.8783 444.03 24.3622 444.03 24.9688V30H442.857V28.9659H442.797C442.718 29.1316 442.585 29.3089 442.399 29.4979C442.214 29.6868 441.967 29.8475 441.659 29.9801C441.35 30.1127 440.974 30.179 440.53 30.179ZM440.709 29.125C441.173 29.125 441.564 29.0339 441.882 28.8516C442.204 28.6693 442.446 28.4339 442.608 28.1456C442.774 27.8572 442.857 27.554 442.857 27.2358V26.1619C442.807 26.2216 442.698 26.2763 442.529 26.326C442.363 26.3724 442.171 26.4138 441.952 26.4503C441.736 26.4834 441.526 26.5133 441.32 26.5398C441.118 26.563 440.954 26.5829 440.828 26.5994C440.523 26.6392 440.238 26.7038 439.973 26.7933C439.711 26.8795 439.499 27.0104 439.337 27.1861C439.178 27.3584 439.098 27.5937 439.098 27.892C439.098 28.2997 439.249 28.608 439.551 28.8168C439.856 29.0223 440.242 29.125 440.709 29.125ZM450.765 30V23.4375H448.737C448.279 23.4375 447.92 23.5436 447.658 23.7557C447.396 23.9678 447.265 24.2595 447.265 24.6307C447.265 24.9953 447.383 25.282 447.618 25.4908C447.857 25.6996 448.183 25.804 448.598 25.804H451.064V26.8977H448.598C448.081 26.8977 447.635 26.8066 447.26 26.6243C446.886 26.442 446.597 26.1818 446.395 25.8438C446.193 25.5024 446.092 25.098 446.092 24.6307C446.092 24.16 446.198 23.7557 446.41 23.4176C446.622 23.0795 446.926 22.8194 447.32 22.6371C447.718 22.4548 448.19 22.3636 448.737 22.3636H451.879V30H450.765ZM445.674 30L447.842 26.2017H449.115L446.947 30H445.674Z"
        fill="#191E28" />
    <path
        d="M641.651 30H640.358L644.097 19.8182H645.369L649.108 30H647.815L644.773 21.429H644.693L641.651 30ZM642.128 26.0227H647.338V27.1165H642.128V26.0227ZM650.535 30V22.3636H653.657C654.479 22.3636 655.132 22.5492 655.616 22.9205C656.1 23.2917 656.342 23.7822 656.342 24.392C656.342 24.8561 656.204 25.2157 655.929 25.4709C655.654 25.7228 655.301 25.8935 654.87 25.983C655.152 26.0227 655.425 26.1222 655.69 26.2812C655.959 26.4403 656.181 26.6591 656.357 26.9375C656.532 27.2126 656.62 27.5507 656.62 27.9517C656.62 28.3428 656.521 28.6925 656.322 29.0007C656.123 29.3089 655.838 29.5526 655.467 29.7315C655.095 29.9105 654.651 30 654.134 30H650.535ZM651.648 28.9261H654.134C654.539 28.9261 654.855 28.83 655.084 28.6378C655.313 28.4455 655.427 28.1837 655.427 27.8523C655.427 27.4579 655.313 27.148 655.084 26.9226C654.855 26.6939 654.539 26.5795 654.134 26.5795H651.648V28.9261ZM651.648 25.5653H653.657C653.972 25.5653 654.242 25.5223 654.467 25.4361C654.693 25.3466 654.865 25.2206 654.984 25.0582C655.107 24.8925 655.168 24.697 655.168 24.4716C655.168 24.1501 655.034 23.8982 654.766 23.7159C654.497 23.5303 654.128 23.4375 653.657 23.4375H651.648V25.5653ZM657.959 23.4574V22.3636H664.163V23.4574H661.657V30H660.484V23.4574H657.959ZM668.58 30.1591C667.891 30.1591 667.286 29.995 666.766 29.6669C666.249 29.3388 665.844 28.8797 665.553 28.2898C665.264 27.6998 665.12 27.0104 665.12 26.2216C665.12 25.4261 665.264 24.7318 665.553 24.1385C665.844 23.5452 666.249 23.0845 666.766 22.7564C667.286 22.4283 667.891 22.2642 668.58 22.2642C669.27 22.2642 669.873 22.4283 670.39 22.7564C670.91 23.0845 671.315 23.5452 671.603 24.1385C671.895 24.7318 672.041 25.4261 672.041 26.2216C672.041 27.0104 671.895 27.6998 671.603 28.2898C671.315 28.8797 670.91 29.3388 670.39 29.6669C669.873 29.995 669.27 30.1591 668.58 30.1591ZM668.58 29.1051C669.104 29.1051 669.535 28.9709 669.873 28.7024C670.211 28.4339 670.461 28.081 670.624 27.6435C670.786 27.206 670.867 26.732 670.867 26.2216C670.867 25.7112 670.786 25.2356 670.624 24.7947C670.461 24.3539 670.211 23.9976 669.873 23.7259C669.535 23.4541 669.104 23.3182 668.58 23.3182C668.057 23.3182 667.626 23.4541 667.288 23.7259C666.95 23.9976 666.7 24.3539 666.537 24.7947C666.375 25.2356 666.294 25.7112 666.294 26.2216C666.294 26.732 666.375 27.206 666.537 27.6435C666.7 28.081 666.95 28.4339 667.288 28.7024C667.626 28.9709 668.057 29.1051 668.58 29.1051ZM678.008 28.4091L680.673 22.3636H681.786L678.485 30H677.531L674.289 22.3636H675.383L678.008 28.4091ZM675.005 22.3636V30H673.832V22.3636H675.005ZM681.011 30V22.3636H682.184V30H681.011ZM686.579 30.179C686.095 30.179 685.656 30.0878 685.261 29.9055C684.867 29.7199 684.554 29.4531 684.322 29.1051C684.09 28.7538 683.974 28.3295 683.974 27.8324C683.974 27.3949 684.06 27.0402 684.232 26.7685C684.405 26.4934 684.635 26.2779 684.923 26.1222C685.212 25.9664 685.53 25.8504 685.878 25.7741C686.229 25.6946 686.582 25.6316 686.937 25.5852C687.401 25.5256 687.777 25.4808 688.065 25.451C688.357 25.4179 688.569 25.3632 688.702 25.2869C688.838 25.2107 688.906 25.0781 688.906 24.8892V24.8494C688.906 24.3589 688.771 23.9777 688.503 23.706C688.238 23.4342 687.835 23.2983 687.295 23.2983C686.735 23.2983 686.295 23.4209 685.977 23.6662C685.659 23.9115 685.435 24.1733 685.306 24.4517L684.192 24.054C684.391 23.59 684.656 23.2287 684.988 22.9702C685.323 22.7083 685.687 22.526 686.082 22.4233C686.479 22.3172 686.871 22.2642 687.255 22.2642C687.5 22.2642 687.782 22.294 688.1 22.3537C688.422 22.41 688.732 22.5277 689.03 22.7067C689.331 22.8857 689.582 23.1558 689.781 23.517C689.979 23.8783 690.079 24.3622 690.079 24.9688V30H688.906V28.9659H688.846C688.766 29.1316 688.634 29.3089 688.448 29.4979C688.263 29.6868 688.016 29.8475 687.707 29.9801C687.399 30.1127 687.023 30.179 686.579 30.179ZM686.758 29.125C687.222 29.125 687.613 29.0339 687.931 28.8516C688.253 28.6693 688.495 28.4339 688.657 28.1456C688.823 27.8572 688.906 27.554 688.906 27.2358V26.1619C688.856 26.2216 688.746 26.2763 688.577 26.326C688.412 26.3724 688.219 26.4138 688.001 26.4503C687.785 26.4834 687.575 26.5133 687.369 26.5398C687.167 26.563 687.003 26.5829 686.877 26.5994C686.572 26.6392 686.287 26.7038 686.022 26.7933C685.76 26.8795 685.548 27.0104 685.386 27.1861C685.227 27.3584 685.147 27.5937 685.147 27.892C685.147 28.2997 685.298 28.608 685.599 28.8168C685.904 29.0223 686.29 29.125 686.758 29.125ZM691.181 23.4574V22.3636H697.386V23.4574H694.88V30H693.707V23.4574H691.181ZM700.271 28.2699L703.95 22.3636H705.302V30H704.129V24.0938L700.469 30H699.097V22.3636H700.271V28.2699ZM706.974 28.0511H708.226C708.253 28.3958 708.409 28.6577 708.694 28.8366C708.982 29.0156 709.357 29.1051 709.817 29.1051C710.288 29.1051 710.691 29.009 711.025 28.8168C711.36 28.6212 711.528 28.3063 711.528 27.8722C711.528 27.617 711.465 27.3949 711.339 27.206C711.213 27.0137 711.035 26.8646 710.807 26.7585C710.578 26.6525 710.308 26.5994 709.996 26.5994H708.684V25.5455H709.996C710.464 25.5455 710.808 25.4394 711.03 25.2273C711.256 25.0152 711.368 24.75 711.368 24.4318C711.368 24.0904 711.247 23.817 711.006 23.6115C710.764 23.4027 710.421 23.2983 709.976 23.2983C709.529 23.2983 709.156 23.3994 708.858 23.6016C708.559 23.8004 708.402 24.0573 708.385 24.3722H707.153C707.166 23.9612 707.292 23.5982 707.53 23.2834C707.769 22.9652 708.094 22.7166 708.505 22.5376C708.916 22.3554 709.386 22.2642 709.917 22.2642C710.454 22.2642 710.919 22.3587 711.314 22.5476C711.711 22.7332 712.018 22.9867 712.233 23.3082C712.452 23.6264 712.562 23.9877 712.562 24.392C712.562 24.8229 712.441 25.1709 712.199 25.4361C711.957 25.7012 711.653 25.8902 711.289 26.0028V26.0824C711.577 26.1023 711.827 26.1951 712.04 26.3608C712.255 26.5232 712.422 26.737 712.542 27.0021C712.661 27.264 712.721 27.554 712.721 27.8722C712.721 28.3362 712.596 28.7405 712.348 29.0852C712.099 29.4266 711.758 29.6918 711.324 29.8807C710.89 30.0663 710.394 30.1591 709.837 30.1591C709.297 30.1591 708.813 30.0713 708.385 29.8956C707.958 29.7166 707.618 29.4697 707.366 29.1548C707.118 28.8366 706.987 28.4688 706.974 28.0511ZM716.616 30.179C716.132 30.179 715.693 30.0878 715.298 29.9055C714.904 29.7199 714.591 29.4531 714.359 29.1051C714.127 28.7538 714.011 28.3295 714.011 27.8324C714.011 27.3949 714.097 27.0402 714.269 26.7685C714.442 26.4934 714.672 26.2779 714.96 26.1222C715.249 25.9664 715.567 25.8504 715.915 25.7741C716.266 25.6946 716.619 25.6316 716.974 25.5852C717.438 25.5256 717.814 25.4808 718.102 25.451C718.394 25.4179 718.606 25.3632 718.739 25.2869C718.875 25.2107 718.943 25.0781 718.943 24.8892V24.8494C718.943 24.3589 718.808 23.9777 718.54 23.706C718.275 23.4342 717.872 23.2983 717.332 23.2983C716.772 23.2983 716.333 23.4209 716.014 23.6662C715.696 23.9115 715.472 24.1733 715.343 24.4517L714.23 24.054C714.428 23.59 714.694 23.2287 715.025 22.9702C715.36 22.7083 715.724 22.526 716.119 22.4233C716.517 22.3172 716.908 22.2642 717.292 22.2642C717.537 22.2642 717.819 22.294 718.137 22.3537C718.459 22.41 718.769 22.5277 719.067 22.7067C719.369 22.8857 719.619 23.1558 719.818 23.517C720.017 23.8783 720.116 24.3622 720.116 24.9688V30H718.943V28.9659H718.883C718.803 29.1316 718.671 29.3089 718.485 29.4979C718.3 29.6868 718.053 29.8475 717.744 29.9801C717.436 30.1127 717.06 30.179 716.616 30.179ZM716.795 29.125C717.259 29.125 717.65 29.0339 717.968 28.8516C718.29 28.6693 718.532 28.4339 718.694 28.1456C718.86 27.8572 718.943 27.554 718.943 27.2358V26.1619C718.893 26.2216 718.784 26.2763 718.615 26.326C718.449 26.3724 718.257 26.4138 718.038 26.4503C717.822 26.4834 717.612 26.5133 717.406 26.5398C717.204 26.563 717.04 26.5829 716.914 26.5994C716.609 26.6392 716.324 26.7038 716.059 26.7933C715.797 26.8795 715.585 27.0104 715.423 27.1861C715.264 27.3584 715.184 27.5937 715.184 27.892C715.184 28.2997 715.335 28.608 715.637 28.8168C715.941 29.0223 716.328 29.125 716.795 29.125ZM728.263 22.3636V28.9062H729.337V32.4659H728.164V30H722.257V22.3636H723.431V28.9062H727.09V22.3636H728.263ZM732.317 28.2699L735.996 22.3636H737.349V30H736.175V24.0938L732.516 30H731.144V22.3636H732.317V28.2699ZM744.091 30V23.4375H742.063C741.606 23.4375 741.246 23.5436 740.984 23.7557C740.722 23.9678 740.591 24.2595 740.591 24.6307C740.591 24.9953 740.709 25.282 740.944 25.4908C741.183 25.6996 741.51 25.804 741.924 25.804H744.39V26.8977H741.924C741.407 26.8977 740.961 26.8066 740.586 26.6243C740.212 26.442 739.924 26.1818 739.721 25.8438C739.519 25.5024 739.418 25.098 739.418 24.6307C739.418 24.16 739.524 23.7557 739.736 23.4176C739.948 23.0795 740.252 22.8194 740.646 22.6371C741.044 22.4548 741.516 22.3636 742.063 22.3636H745.205V30H744.091ZM739.001 30L741.168 26.2017H742.441L740.273 30H739.001Z"
        fill="#191E28" />
    <path
        d="M771.358 30V28.8665H771.656C772.08 28.8665 772.41 28.7306 772.646 28.4588C772.881 28.187 773.05 27.7479 773.153 27.1413C773.259 26.5348 773.33 25.7311 773.366 24.7301L773.545 19.8182H779.75V30H778.517V20.9119H774.719L774.56 24.9688C774.52 26.036 774.422 26.9441 774.266 27.6932C774.111 28.4422 773.837 29.014 773.446 29.4084C773.055 29.8028 772.485 30 771.736 30H771.358ZM784.301 30.179C783.818 30.179 783.378 30.0878 782.984 29.9055C782.59 29.7199 782.276 29.4531 782.044 29.1051C781.812 28.7538 781.696 28.3295 781.696 27.8324C781.696 27.3949 781.783 27.0402 781.955 26.7685C782.127 26.4934 782.358 26.2779 782.646 26.1222C782.934 25.9664 783.252 25.8504 783.6 25.7741C783.952 25.6946 784.305 25.6316 784.659 25.5852C785.123 25.5256 785.5 25.4808 785.788 25.451C786.08 25.4179 786.292 25.3632 786.424 25.2869C786.56 25.2107 786.628 25.0781 786.628 24.8892V24.8494C786.628 24.3589 786.494 23.9777 786.225 23.706C785.96 23.4342 785.558 23.2983 785.017 23.2983C784.457 23.2983 784.018 23.4209 783.7 23.6662C783.382 23.9115 783.158 24.1733 783.029 24.4517L781.915 24.054C782.114 23.59 782.379 23.2287 782.711 22.9702C783.045 22.7083 783.41 22.526 783.804 22.4233C784.202 22.3172 784.593 22.2642 784.978 22.2642C785.223 22.2642 785.505 22.294 785.823 22.3537C786.144 22.41 786.454 22.5277 786.752 22.7067C787.054 22.8857 787.304 23.1558 787.503 23.517C787.702 23.8783 787.801 24.3622 787.801 24.9688V30H786.628V28.9659H786.569C786.489 29.1316 786.356 29.3089 786.171 29.4979C785.985 29.6868 785.738 29.8475 785.43 29.9801C785.122 30.1127 784.746 30.179 784.301 30.179ZM784.48 29.125C784.944 29.125 785.336 29.0339 785.654 28.8516C785.975 28.6693 786.217 28.4339 786.38 28.1456C786.545 27.8572 786.628 27.554 786.628 27.2358V26.1619C786.578 26.2216 786.469 26.2763 786.3 26.326C786.134 26.3724 785.942 26.4138 785.723 26.4503C785.508 26.4834 785.297 26.5133 785.092 26.5398C784.89 26.563 784.726 26.5829 784.6 26.5994C784.295 26.6392 784.01 26.7038 783.745 26.7933C783.483 26.8795 783.271 27.0104 783.108 27.1861C782.949 27.3584 782.87 27.5937 782.87 27.892C782.87 28.2997 783.02 28.608 783.322 28.8168C783.627 29.0223 784.013 29.125 784.48 29.125ZM791.116 28.2699L794.795 22.3636H796.148V30H794.974V24.0938L791.315 30H789.943V22.3636H791.116V28.2699ZM794.02 19.8182H795.113C795.113 20.3551 794.928 20.7943 794.557 21.1357C794.185 21.477 793.682 21.6477 793.045 21.6477C792.419 21.6477 791.92 21.477 791.549 21.1357C791.181 20.7943 790.997 20.3551 790.997 19.8182H792.091C792.091 20.0767 792.162 20.3037 792.305 20.4993C792.45 20.6948 792.697 20.7926 793.045 20.7926C793.393 20.7926 793.642 20.6948 793.791 20.4993C793.943 20.3037 794.02 20.0767 794.02 19.8182ZM801.399 32.6051V19.8182H802.572V32.6051H801.399ZM801.399 30.1591C800.882 30.1591 800.411 30.0663 799.987 29.8807C799.563 29.6918 799.198 29.425 798.893 29.0803C798.588 28.7322 798.353 28.3163 798.187 27.8324C798.021 27.3485 797.939 26.8116 797.939 26.2216C797.939 25.625 798.021 25.0848 798.187 24.6009C798.353 24.1136 798.588 23.696 798.893 23.348C799.198 23 799.563 22.7332 799.987 22.5476C800.411 22.3587 800.882 22.2642 801.399 22.2642H801.757V30.1591H801.399ZM801.399 29.1051H801.598V23.3182H801.399C801.008 23.3182 800.668 23.3977 800.38 23.5568C800.091 23.7126 799.853 23.9264 799.664 24.1982C799.478 24.4666 799.339 24.7749 799.246 25.1229C799.157 25.4709 799.112 25.8371 799.112 26.2216C799.112 26.732 799.193 27.206 799.355 27.6435C799.518 28.081 799.768 28.4339 800.106 28.7024C800.444 28.9709 800.875 29.1051 801.399 29.1051ZM802.572 30.1591H802.214V22.2642H802.572C803.089 22.2642 803.56 22.3587 803.984 22.5476C804.408 22.7332 804.773 23 805.078 23.348C805.383 23.696 805.618 24.1136 805.784 24.6009C805.949 25.0848 806.032 25.625 806.032 26.2216C806.032 26.8116 805.949 27.3485 805.784 27.8324C805.618 28.3163 805.383 28.7322 805.078 29.0803C804.773 29.425 804.408 29.6918 803.984 29.8807C803.56 30.0663 803.089 30.1591 802.572 30.1591ZM802.572 29.1051C802.967 29.1051 803.306 29.0289 803.591 28.8764C803.88 28.7206 804.117 28.5085 804.302 28.2401C804.491 27.9683 804.63 27.66 804.72 27.3153C804.813 26.9673 804.859 26.6027 804.859 26.2216C804.859 25.7112 804.778 25.2356 804.615 24.7947C804.453 24.3539 804.203 23.9976 803.865 23.7259C803.527 23.4541 803.096 23.3182 802.572 23.3182H802.373V29.1051H802.572ZM808.386 22.3636L810.216 25.4858L812.045 22.3636H813.398L810.932 26.1818L813.398 30H812.045L810.216 27.0369L808.386 30H807.034L809.46 26.1818L807.034 22.3636H808.386ZM817.319 30.179C816.835 30.179 816.396 30.0878 816.002 29.9055C815.607 29.7199 815.294 29.4531 815.062 29.1051C814.83 28.7538 814.714 28.3295 814.714 27.8324C814.714 27.3949 814.8 27.0402 814.972 26.7685C815.145 26.4934 815.375 26.2779 815.664 26.1222C815.952 25.9664 816.27 25.8504 816.618 25.7741C816.969 25.6946 817.322 25.6316 817.677 25.5852C818.141 25.5256 818.517 25.4808 818.806 25.451C819.097 25.4179 819.309 25.3632 819.442 25.2869C819.578 25.2107 819.646 25.0781 819.646 24.8892V24.8494C819.646 24.3589 819.512 23.9777 819.243 23.706C818.978 23.4342 818.575 23.2983 818.035 23.2983C817.475 23.2983 817.036 23.4209 816.718 23.6662C816.399 23.9115 816.176 24.1733 816.046 24.4517L814.933 24.054C815.132 23.59 815.397 23.2287 815.728 22.9702C816.063 22.7083 816.427 22.526 816.822 22.4233C817.22 22.3172 817.611 22.2642 817.995 22.2642C818.24 22.2642 818.522 22.294 818.84 22.3537C819.162 22.41 819.472 22.5277 819.77 22.7067C820.072 22.8857 820.322 23.1558 820.521 23.517C820.72 23.8783 820.819 24.3622 820.819 24.9688V30H819.646V28.9659H819.586C819.507 29.1316 819.374 29.3089 819.188 29.4979C819.003 29.6868 818.756 29.8475 818.448 29.9801C818.139 30.1127 817.763 30.179 817.319 30.179ZM817.498 29.125C817.962 29.125 818.353 29.0339 818.671 28.8516C818.993 28.6693 819.235 28.4339 819.397 28.1456C819.563 27.8572 819.646 27.554 819.646 27.2358V26.1619C819.596 26.2216 819.487 26.2763 819.318 26.326C819.152 26.3724 818.96 26.4138 818.741 26.4503C818.526 26.4834 818.315 26.5133 818.11 26.5398C817.907 26.563 817.743 26.5829 817.617 26.5994C817.312 26.6392 817.027 26.7038 816.762 26.7933C816.5 26.8795 816.288 27.0104 816.126 27.1861C815.967 27.3584 815.887 27.5937 815.887 27.892C815.887 28.2997 816.038 28.608 816.34 28.8168C816.645 29.0223 817.031 29.125 817.498 29.125ZM822.961 30V22.3636H824.134V25.6847H824.909L827.654 22.3636H829.165L826.083 26.0426L829.205 30H827.694L825.188 26.7784H824.134V30H822.961ZM831.653 28.2699L835.332 22.3636H836.685V30H835.511V24.0938L831.852 30H830.48V22.3636H831.653V28.2699Z"
        fill="#191E28" />
    <path
        d="M862.358 30V28.8665H862.656C863.08 28.8665 863.41 28.7306 863.646 28.4588C863.881 28.187 864.05 27.7479 864.153 27.1413C864.259 26.5348 864.33 25.7311 864.366 24.7301L864.545 19.8182H870.75V30H869.517V20.9119H865.719L865.56 24.9688C865.52 26.036 865.422 26.9441 865.266 27.6932C865.111 28.4422 864.837 29.014 864.446 29.4084C864.055 29.8028 863.485 30 862.736 30H862.358ZM874.228 28.2699L877.907 22.3636H879.259V30H878.086V24.0938L874.426 30H873.054V22.3636H874.228V28.2699ZM887.294 22.3636V30H886.121V22.3636H887.294ZM886.837 26.0028V27.0966C886.572 27.196 886.308 27.2839 886.046 27.3601C885.785 27.433 885.509 27.491 885.221 27.5341C884.933 27.5739 884.616 27.5938 884.271 27.5938C883.406 27.5938 882.712 27.3601 882.188 26.8928C881.668 26.4254 881.408 25.7244 881.408 24.7898V22.3438H882.581V24.7898C882.581 25.1809 882.656 25.5024 882.805 25.7543C882.954 26.0062 883.156 26.1934 883.411 26.3161C883.667 26.4387 883.953 26.5 884.271 26.5C884.769 26.5 885.218 26.4553 885.619 26.3658C886.023 26.273 886.429 26.152 886.837 26.0028ZM894.558 25.6449V26.7386H890.342V25.6449H894.558ZM890.62 22.3636V30H889.447V22.3636H890.62ZM895.453 22.3636V30H894.279V22.3636H895.453ZM898.61 25.1278H900.797C901.692 25.1278 902.376 25.3549 902.85 25.8089C903.324 26.263 903.561 26.8381 903.561 27.5341C903.561 27.9915 903.455 28.4074 903.243 28.782C903.031 29.1532 902.719 29.4498 902.308 29.6719C901.897 29.8906 901.394 30 900.797 30H897.595V22.3636H898.769V28.9062H900.797C901.261 28.9062 901.642 28.7836 901.941 28.5384C902.239 28.2931 902.388 27.9782 902.388 27.5938C902.388 27.1894 902.239 26.8596 901.941 26.6044C901.642 26.3492 901.261 26.2216 900.797 26.2216H898.61V25.1278ZM904.774 30V22.3636H905.948V30H904.774ZM909.269 28.2699L912.948 22.3636H914.3V30H913.127V24.0938L909.468 30H908.095V22.3636H909.269V28.2699ZM912.172 19.8182H913.266C913.266 20.3551 913.08 20.7943 912.709 21.1357C912.338 21.477 911.834 21.6477 911.198 21.6477C910.571 21.6477 910.072 21.477 909.701 21.1357C909.333 20.7943 909.149 20.3551 909.149 19.8182H910.243C910.243 20.0767 910.314 20.3037 910.457 20.4993C910.603 20.6948 910.85 20.7926 911.198 20.7926C911.546 20.7926 911.794 20.6948 911.943 20.4993C912.096 20.3037 912.172 20.0767 912.172 19.8182ZM923.489 30.1591C922.799 30.1591 922.194 29.995 921.674 29.6669C921.157 29.3388 920.753 28.8797 920.461 28.2898C920.173 27.6998 920.028 27.0104 920.028 26.2216C920.028 25.4261 920.173 24.7318 920.461 24.1385C920.753 23.5452 921.157 23.0845 921.674 22.7564C922.194 22.4283 922.799 22.2642 923.489 22.2642C924.178 22.2642 924.781 22.4283 925.298 22.7564C925.819 23.0845 926.223 23.5452 926.511 24.1385C926.803 24.7318 926.949 25.4261 926.949 26.2216C926.949 27.0104 926.803 27.6998 926.511 28.2898C926.223 28.8797 925.819 29.3388 925.298 29.6669C924.781 29.995 924.178 30.1591 923.489 30.1591ZM923.489 29.1051C924.012 29.1051 924.443 28.9709 924.781 28.7024C925.119 28.4339 925.37 28.081 925.532 27.6435C925.694 27.206 925.776 26.732 925.776 26.2216C925.776 25.7112 925.694 25.2356 925.532 24.7947C925.37 24.3539 925.119 23.9976 924.781 23.7259C924.443 23.4541 924.012 23.3182 923.489 23.3182C922.965 23.3182 922.534 23.4541 922.196 23.7259C921.858 23.9976 921.608 24.3539 921.445 24.7947C921.283 25.2356 921.202 25.7112 921.202 26.2216C921.202 26.732 921.283 27.206 921.445 27.6435C921.608 28.081 921.858 28.4339 922.196 28.7024C922.534 28.9709 922.965 29.1051 923.489 29.1051ZM928.74 30V22.3636H934.746V30H933.572V23.4574H929.913V30H928.74ZM937.903 25.1278H940.09C940.985 25.1278 941.669 25.3549 942.143 25.8089C942.617 26.263 942.854 26.8381 942.854 27.5341C942.854 27.9915 942.748 28.4074 942.536 28.782C942.324 29.1532 942.012 29.4498 941.601 29.6719C941.19 29.8906 940.687 30 940.09 30H936.888V22.3636H938.062V28.9062H940.09C940.554 28.9062 940.935 28.7836 941.233 28.5384C941.532 28.2931 941.681 27.9782 941.681 27.5938C941.681 27.1894 941.532 26.8596 941.233 26.6044C940.935 26.3492 940.554 26.2216 940.09 26.2216H937.903V25.1278ZM944.067 30V22.3636H945.241V30H944.067ZM946.951 23.4574V22.3636H953.155V23.4574H950.65V30H949.476V23.4574H946.951Z"
        fill="#191E28" />
    <path
        d="M986.849 19.8182V30H985.616V20.9119H980.486V30H979.253V19.8182H986.849ZM991.425 30.179C990.941 30.179 990.501 30.0878 990.107 29.9055C989.713 29.7199 989.399 29.4531 989.167 29.1051C988.935 28.7538 988.819 28.3295 988.819 27.8324C988.819 27.3949 988.906 27.0402 989.078 26.7685C989.25 26.4934 989.481 26.2779 989.769 26.1222C990.057 25.9664 990.376 25.8504 990.724 25.7741C991.075 25.6946 991.428 25.6316 991.782 25.5852C992.247 25.5256 992.623 25.4808 992.911 25.451C993.203 25.4179 993.415 25.3632 993.547 25.2869C993.683 25.2107 993.751 25.0781 993.751 24.8892V24.8494C993.751 24.3589 993.617 23.9777 993.349 23.706C993.083 23.4342 992.681 23.2983 992.14 23.2983C991.58 23.2983 991.141 23.4209 990.823 23.6662C990.505 23.9115 990.281 24.1733 990.152 24.4517L989.038 24.054C989.237 23.59 989.502 23.2287 989.834 22.9702C990.168 22.7083 990.533 22.526 990.927 22.4233C991.325 22.3172 991.716 22.2642 992.101 22.2642C992.346 22.2642 992.628 22.294 992.946 22.3537C993.267 22.41 993.577 22.5277 993.876 22.7067C994.177 22.8857 994.427 23.1558 994.626 23.517C994.825 23.8783 994.925 24.3622 994.925 24.9688V30H993.751V28.9659H993.692C993.612 29.1316 993.479 29.3089 993.294 29.4979C993.108 29.6868 992.861 29.8475 992.553 29.9801C992.245 30.1127 991.869 30.179 991.425 30.179ZM991.604 29.125C992.068 29.125 992.459 29.0339 992.777 28.8516C993.098 28.6693 993.34 28.4339 993.503 28.1456C993.668 27.8572 993.751 27.554 993.751 27.2358V26.1619C993.702 26.2216 993.592 26.2763 993.423 26.326C993.257 26.3724 993.065 26.4138 992.846 26.4503C992.631 26.4834 992.421 26.5133 992.215 26.5398C992.013 26.563 991.849 26.5829 991.723 26.5994C991.418 26.6392 991.133 26.7038 990.868 26.7933C990.606 26.8795 990.394 27.0104 990.231 27.1861C990.072 27.3584 989.993 27.5937 989.993 27.892C989.993 28.2997 990.144 28.608 990.445 28.8168C990.75 29.0223 991.136 29.125 991.604 29.125ZM997.066 32.8636V22.3636H998.2V23.5767H998.339C998.425 23.4441 998.544 23.2751 998.697 23.0696C998.853 22.8608 999.075 22.6752 999.363 22.5128C999.655 22.3471 1000.05 22.2642 1000.55 22.2642C1001.19 22.2642 1001.76 22.425 1002.25 22.7464C1002.74 23.0679 1003.12 23.5237 1003.39 24.1136C1003.67 24.7036 1003.81 25.3996 1003.81 26.2017C1003.81 27.0104 1003.67 27.7114 1003.39 28.3047C1003.12 28.8946 1002.74 29.352 1002.25 29.6768C1001.76 29.9983 1001.2 30.1591 1000.57 30.1591C1000.08 30.1591 999.683 30.0779 999.388 29.9155C999.093 29.7498 998.866 29.5625 998.707 29.3537C998.548 29.1416 998.425 28.9659 998.339 28.8267H998.239V32.8636H997.066ZM998.219 26.1818C998.219 26.7585 998.304 27.2673 998.473 27.7081C998.642 28.1456 998.889 28.4886 999.214 28.7372C999.539 28.9825 999.936 29.1051 1000.41 29.1051C1000.9 29.1051 1001.31 28.9759 1001.63 28.7173C1001.97 28.4555 1002.21 28.1042 1002.38 27.6634C1002.55 27.2192 1002.63 26.7254 1002.63 26.1818C1002.63 25.6449 1002.55 25.161 1002.39 24.7301C1002.22 24.2959 1001.98 23.9529 1001.64 23.701C1001.32 23.4458 1000.9 23.3182 1000.41 23.3182C999.93 23.3182 999.529 23.4392 999.204 23.6811C998.879 23.9197 998.634 24.2545 998.468 24.6854C998.302 25.1129 998.219 25.6117 998.219 26.1818ZM1008.7 30.1591C1007.98 30.1591 1007.37 29.9901 1006.85 29.652C1006.33 29.3139 1005.94 28.8482 1005.66 28.255C1005.38 27.6617 1005.24 26.9839 1005.24 26.2216C1005.24 25.446 1005.38 24.7616 1005.67 24.1683C1005.96 23.5717 1006.36 23.1061 1006.87 22.7713C1007.39 22.4332 1007.99 22.2642 1008.68 22.2642C1009.22 22.2642 1009.7 22.3636 1010.13 22.5625C1010.56 22.7614 1010.92 23.0398 1011.19 23.3977C1011.47 23.7557 1011.64 24.1733 1011.7 24.6506H1010.53C1010.44 24.3026 1010.24 23.9943 1009.93 23.7259C1009.63 23.4541 1009.22 23.3182 1008.7 23.3182C1008.24 23.3182 1007.84 23.4375 1007.5 23.6761C1007.16 23.9115 1006.89 24.2446 1006.7 24.6754C1006.51 25.103 1006.41 25.6051 1006.41 26.1818C1006.41 26.7718 1006.51 27.2855 1006.69 27.723C1006.88 28.1605 1007.15 28.5002 1007.49 28.7422C1007.83 28.9841 1008.24 29.1051 1008.7 29.1051C1009 29.1051 1009.28 29.0521 1009.53 28.946C1009.78 28.84 1009.99 28.6875 1010.16 28.4886C1010.33 28.2898 1010.46 28.0511 1010.53 27.7727H1011.7C1011.64 28.2235 1011.47 28.6295 1011.21 28.9908C1010.95 29.3487 1010.61 29.6338 1010.18 29.8459C1009.76 30.0547 1009.26 30.1591 1008.7 30.1591ZM1014.59 28.2699L1018.27 22.3636H1019.62V30H1018.45V24.0938L1014.79 30H1013.42V22.3636H1014.59V28.2699ZM1026.88 25.6449V26.7386H1022.67V25.6449H1026.88ZM1022.94 22.3636V30H1021.77V22.3636H1022.94ZM1027.78 22.3636V30H1026.6V22.3636H1027.78ZM1034.63 22.3636V23.4574H1031.09V30H1029.92V22.3636H1034.63Z"
        fill="#191E28" />
    <path
        d="M1068.85 19.8182V30H1067.62V20.9119H1062.49V30H1061.25V19.8182H1068.85ZM1071.18 32.8636V22.3636H1072.31V23.5767H1072.45C1072.54 23.4441 1072.66 23.2751 1072.81 23.0696C1072.96 22.8608 1073.19 22.6752 1073.47 22.5128C1073.77 22.3471 1074.16 22.2642 1074.66 22.2642C1075.3 22.2642 1075.87 22.425 1076.36 22.7464C1076.85 23.0679 1077.23 23.5237 1077.51 24.1136C1077.78 24.7036 1077.92 25.3996 1077.92 26.2017C1077.92 27.0104 1077.78 27.7114 1077.51 28.3047C1077.23 28.8946 1076.85 29.352 1076.36 29.6768C1075.88 29.9983 1075.31 30.1591 1074.68 30.1591C1074.19 30.1591 1073.79 30.0779 1073.5 29.9155C1073.2 29.7498 1072.98 29.5625 1072.82 29.3537C1072.66 29.1416 1072.54 28.9659 1072.45 28.8267H1072.35V32.8636H1071.18ZM1072.33 26.1818C1072.33 26.7585 1072.42 27.2673 1072.58 27.7081C1072.75 28.1456 1073 28.4886 1073.33 28.7372C1073.65 28.9825 1074.05 29.1051 1074.52 29.1051C1075.01 29.1051 1075.42 28.9759 1075.75 28.7173C1076.08 28.4555 1076.33 28.1042 1076.49 27.6634C1076.66 27.2192 1076.75 26.7254 1076.75 26.1818C1076.75 25.6449 1076.66 25.161 1076.5 24.7301C1076.33 24.2959 1076.09 23.9529 1075.76 23.701C1075.43 23.4458 1075.02 23.3182 1074.52 23.3182C1074.04 23.3182 1073.64 23.4392 1073.32 23.6811C1072.99 23.9197 1072.75 24.2545 1072.58 24.6854C1072.41 25.1129 1072.33 25.6117 1072.33 26.1818ZM1082.81 30.1591C1082.12 30.1591 1081.52 29.995 1081 29.6669C1080.48 29.3388 1080.07 28.8797 1079.78 28.2898C1079.49 27.6998 1079.35 27.0104 1079.35 26.2216C1079.35 25.4261 1079.49 24.7318 1079.78 24.1385C1080.07 23.5452 1080.48 23.0845 1081 22.7564C1081.52 22.4283 1082.12 22.2642 1082.81 22.2642C1083.5 22.2642 1084.1 22.4283 1084.62 22.7564C1085.14 23.0845 1085.55 23.5452 1085.83 24.1385C1086.13 24.7318 1086.27 25.4261 1086.27 26.2216C1086.27 27.0104 1086.13 27.6998 1085.83 28.2898C1085.55 28.8797 1085.14 29.3388 1084.62 29.6669C1084.1 29.995 1083.5 30.1591 1082.81 30.1591ZM1082.81 29.1051C1083.33 29.1051 1083.77 28.9709 1084.1 28.7024C1084.44 28.4339 1084.69 28.081 1084.85 27.6435C1085.02 27.206 1085.1 26.732 1085.1 26.2216C1085.1 25.7112 1085.02 25.2356 1084.85 24.7947C1084.69 24.3539 1084.44 23.9976 1084.1 23.7259C1083.77 23.4541 1083.33 23.3182 1082.81 23.3182C1082.29 23.3182 1081.86 23.4541 1081.52 23.7259C1081.18 23.9976 1080.93 24.3539 1080.77 24.7947C1080.61 25.2356 1080.52 25.7112 1080.52 26.2216C1080.52 26.732 1080.61 27.206 1080.77 27.6435C1080.93 28.081 1081.18 28.4339 1081.52 28.7024C1081.86 28.9709 1082.29 29.1051 1082.81 29.1051ZM1093.95 22.3636V30H1092.78V22.3636H1093.95ZM1093.49 26.0028V27.0966C1093.23 27.196 1092.96 27.2839 1092.7 27.3601C1092.44 27.433 1092.16 27.491 1091.88 27.5341C1091.59 27.5739 1091.27 27.5938 1090.93 27.5938C1090.06 27.5938 1089.37 27.3601 1088.84 26.8928C1088.32 26.4254 1088.06 25.7244 1088.06 24.7898V22.3438H1089.24V24.7898C1089.24 25.1809 1089.31 25.5024 1089.46 25.7543C1089.61 26.0062 1089.81 26.1934 1090.07 26.3161C1090.32 26.4387 1090.61 26.5 1090.93 26.5C1091.42 26.5 1091.87 26.4553 1092.27 26.3658C1092.68 26.273 1093.08 26.152 1093.49 26.0028ZM1099.3 30.1591C1098.57 30.1591 1097.93 29.9967 1097.4 29.6719C1096.87 29.3438 1096.46 28.8864 1096.17 28.2997C1095.89 27.7098 1095.74 27.0237 1095.74 26.2415C1095.74 25.4593 1095.89 24.7699 1096.17 24.1733C1096.46 23.5734 1096.86 23.1061 1097.37 22.7713C1097.89 22.4332 1098.49 22.2642 1099.18 22.2642C1099.58 22.2642 1099.97 22.3305 1100.36 22.4631C1100.75 22.5956 1101.1 22.8111 1101.42 23.1094C1101.74 23.4044 1101.99 23.7955 1102.18 24.2827C1102.37 24.7699 1102.46 25.3698 1102.46 26.0824V26.5795H1096.58V25.5653H1101.27C1101.27 25.1345 1101.19 24.75 1101.01 24.4119C1100.84 24.0739 1100.6 23.8071 1100.29 23.6115C1099.98 23.416 1099.61 23.3182 1099.18 23.3182C1098.72 23.3182 1098.31 23.4342 1097.97 23.6662C1097.63 23.8949 1097.37 24.1932 1097.19 24.5611C1097.01 24.929 1096.92 25.3234 1096.92 25.7443V26.4205C1096.92 26.9972 1097.02 27.486 1097.21 27.8871C1097.42 28.2848 1097.7 28.5881 1098.06 28.7969C1098.41 29.0024 1098.83 29.1051 1099.3 29.1051C1099.61 29.1051 1099.89 29.062 1100.14 28.9759C1100.39 28.8864 1100.61 28.7538 1100.79 28.5781C1100.97 28.3991 1101.11 28.1771 1101.21 27.9119L1102.35 28.2301C1102.23 28.6146 1102.03 28.9527 1101.74 29.2443C1101.46 29.5327 1101.11 29.758 1100.7 29.9205C1100.29 30.0795 1099.82 30.1591 1099.3 30.1591ZM1107.45 30.1591C1106.72 30.1591 1106.08 29.9967 1105.55 29.6719C1105.02 29.3438 1104.61 28.8864 1104.32 28.2997C1104.03 27.7098 1103.89 27.0237 1103.89 26.2415C1103.89 25.4593 1104.03 24.7699 1104.32 24.1733C1104.61 23.5734 1105.01 23.1061 1105.52 22.7713C1106.04 22.4332 1106.64 22.2642 1107.33 22.2642C1107.73 22.2642 1108.12 22.3305 1108.51 22.4631C1108.9 22.5956 1109.25 22.8111 1109.57 23.1094C1109.89 23.4044 1110.14 23.7955 1110.33 24.2827C1110.52 24.7699 1110.61 25.3698 1110.61 26.0824V26.5795H1104.73V25.5653H1109.42C1109.42 25.1345 1109.33 24.75 1109.16 24.4119C1108.99 24.0739 1108.75 23.8071 1108.44 23.6115C1108.12 23.416 1107.76 23.3182 1107.33 23.3182C1106.86 23.3182 1106.46 23.4342 1106.12 23.6662C1105.78 23.8949 1105.52 24.1932 1105.34 24.5611C1105.16 24.929 1105.06 25.3234 1105.06 25.7443V26.4205C1105.06 26.9972 1105.16 27.486 1105.36 27.8871C1105.57 28.2848 1105.85 28.5881 1106.2 28.7969C1106.56 29.0024 1106.98 29.1051 1107.45 29.1051C1107.76 29.1051 1108.04 29.062 1108.29 28.9759C1108.54 28.8864 1108.76 28.7538 1108.94 28.5781C1109.12 28.3991 1109.26 28.1771 1109.36 27.9119L1110.49 28.2301C1110.37 28.6146 1110.17 28.9527 1109.89 29.2443C1109.61 29.5327 1109.26 29.758 1108.85 29.9205C1108.43 30.0795 1107.97 30.1591 1107.45 30.1591Z"
        fill="#191E28" />
    <path
        d="M383.167 28.5007H380.833C380.19 28.5007 379.667 27.9775 379.667 27.3342V25.0013C379.667 24.358 380.19 23.8349 380.833 23.8349H383.167C383.81 23.8349 384.333 24.358 384.333 25.0013V27.3342C384.333 27.9775 383.81 28.5007 383.167 28.5007ZM380.833 25.0013V27.3342H383.168L383.167 25.0013H380.833ZM386.083 32H377.917C376.308 32 375 30.6918 375 29.0839V23.6739C375 22.7028 375.481 21.7988 376.286 21.2564L380.368 18.5013C381.359 17.8329 382.64 17.8329 383.632 18.5013L387.715 21.2564C388.519 21.7988 389 22.7022 389 23.6739V29.0839C389 30.6918 387.692 32 386.083 32ZM382 19.1673C381.659 19.1673 381.319 19.2676 381.021 19.4688L376.938 22.2234C376.455 22.5489 376.167 23.0907 376.167 23.6733V29.0833C376.167 30.0479 376.952 30.833 377.917 30.833H386.083C387.048 30.833 387.833 30.0479 387.833 29.0833V23.6739C387.833 23.0913 387.545 22.5489 387.063 22.224L382.979 19.4688C382.681 19.2676 382.341 19.1673 382 19.1673Z"
        fill="#191E28" />
    <path
        d="M499.358 30V28.8665H499.656C500.08 28.8665 500.41 28.7306 500.646 28.4588C500.881 28.187 501.05 27.7479 501.153 27.1413C501.259 26.5348 501.33 25.7311 501.366 24.7301L501.545 19.8182H507.75V30H506.517V20.9119H502.719L502.56 24.9688C502.52 26.036 502.422 26.9441 502.266 27.6932C502.111 28.4422 501.837 29.014 501.446 29.4084C501.055 29.8028 500.485 30 499.736 30H499.358ZM513.256 30.1591C512.52 30.1591 511.886 29.9967 511.352 29.6719C510.822 29.3438 510.412 28.8864 510.124 28.2997C509.839 27.7098 509.696 27.0237 509.696 26.2415C509.696 25.4593 509.839 24.7699 510.124 24.1733C510.412 23.5734 510.813 23.1061 511.327 22.7713C511.844 22.4332 512.447 22.2642 513.137 22.2642C513.534 22.2642 513.927 22.3305 514.315 22.4631C514.703 22.5956 515.056 22.8111 515.374 23.1094C515.692 23.4044 515.946 23.7955 516.135 24.2827C516.324 24.7699 516.418 25.3698 516.418 26.0824V26.5795H510.532V25.5653H515.225C515.225 25.1345 515.139 24.75 514.966 24.4119C514.797 24.0739 514.555 23.8071 514.24 23.6115C513.929 23.416 513.561 23.3182 513.137 23.3182C512.669 23.3182 512.265 23.4342 511.924 23.6662C511.586 23.8949 511.325 24.1932 511.143 24.5611C510.961 24.929 510.87 25.3234 510.87 25.7443V26.4205C510.87 26.9972 510.969 27.486 511.168 27.8871C511.37 28.2848 511.65 28.5881 512.008 28.7969C512.366 29.0024 512.782 29.1051 513.256 29.1051C513.564 29.1051 513.843 29.062 514.091 28.9759C514.343 28.8864 514.56 28.7538 514.743 28.5781C514.925 28.3991 515.066 28.1771 515.165 27.9119L516.299 28.2301C516.179 28.6146 515.979 28.9527 515.697 29.2443C515.415 29.5327 515.067 29.758 514.653 29.9205C514.239 30.0795 513.773 30.1591 513.256 30.1591ZM523.314 25.6449V26.7386H519.098V25.6449H523.314ZM519.376 22.3636V30H518.203V22.3636H519.376ZM524.208 22.3636V30H523.035V22.3636H524.208ZM525.312 23.4574V22.3636H531.517V23.4574H529.011V30H527.838V23.4574H525.312ZM535.079 30.179C534.595 30.179 534.156 30.0878 533.761 29.9055C533.367 29.7199 533.054 29.4531 532.822 29.1051C532.59 28.7538 532.474 28.3295 532.474 27.8324C532.474 27.3949 532.56 27.0402 532.732 26.7685C532.905 26.4934 533.135 26.2779 533.423 26.1222C533.712 25.9664 534.03 25.8504 534.378 25.7741C534.729 25.6946 535.082 25.6316 535.437 25.5852C535.901 25.5256 536.277 25.4808 536.565 25.451C536.857 25.4179 537.069 25.3632 537.202 25.2869C537.338 25.2107 537.406 25.0781 537.406 24.8892V24.8494C537.406 24.3589 537.271 23.9777 537.003 23.706C536.738 23.4342 536.335 23.2983 535.795 23.2983C535.235 23.2983 534.795 23.4209 534.477 23.6662C534.159 23.9115 533.935 24.1733 533.806 24.4517L532.692 24.054C532.891 23.59 533.156 23.2287 533.488 22.9702C533.823 22.7083 534.187 22.526 534.582 22.4233C534.979 22.3172 535.371 22.2642 535.755 22.2642C536 22.2642 536.282 22.294 536.6 22.3537C536.922 22.41 537.232 22.5277 537.53 22.7067C537.831 22.8857 538.082 23.1558 538.281 23.517C538.479 23.8783 538.579 24.3622 538.579 24.9688V30H537.406V28.9659H537.346C537.266 29.1316 537.134 29.3089 536.948 29.4979C536.763 29.6868 536.516 29.8475 536.207 29.9801C535.899 30.1127 535.523 30.179 535.079 30.179ZM535.258 29.125C535.722 29.125 536.113 29.0339 536.431 28.8516C536.753 28.6693 536.995 28.4339 537.157 28.1456C537.323 27.8572 537.406 27.554 537.406 27.2358V26.1619C537.356 26.2216 537.246 26.2763 537.077 26.326C536.912 26.3724 536.719 26.4138 536.501 26.4503C536.285 26.4834 536.075 26.5133 535.869 26.5398C535.667 26.563 535.503 26.5829 535.377 26.5994C535.072 26.6392 534.787 26.7038 534.522 26.7933C534.26 26.8795 534.048 27.0104 533.886 27.1861C533.727 27.3584 533.647 27.5937 533.647 27.892C533.647 28.2997 533.798 28.608 534.099 28.8168C534.404 29.0223 534.79 29.125 535.258 29.125ZM550.325 19.5L550.922 20.2159C550.69 20.4413 550.422 20.5987 550.117 20.6882C549.812 20.7777 549.467 20.8324 549.083 20.8523C548.698 20.8722 548.271 20.892 547.8 20.9119C547.27 20.9318 546.83 21.0611 546.482 21.2997C546.134 21.5384 545.866 21.883 545.677 22.3338C545.488 22.7846 545.367 23.3381 545.314 23.9943H545.414C545.672 23.517 546.03 23.1657 546.487 22.9403C546.945 22.715 547.435 22.6023 547.959 22.6023C548.556 22.6023 549.093 22.7415 549.57 23.0199C550.047 23.2983 550.425 23.7109 550.703 24.2578C550.982 24.8047 551.121 25.4792 551.121 26.2812C551.121 27.08 550.978 27.7694 550.693 28.3494C550.412 28.9295 550.016 29.3769 549.505 29.6918C548.998 30.0033 548.403 30.1591 547.72 30.1591C547.038 30.1591 546.439 29.9983 545.926 29.6768C545.412 29.352 545.012 28.8714 544.727 28.2351C544.442 27.5954 544.3 26.8049 544.3 25.8636V25.0483C544.3 23.348 544.588 22.0587 545.165 21.1804C545.745 20.3021 546.617 19.848 547.78 19.8182C548.191 19.8049 548.557 19.8016 548.879 19.8082C549.2 19.8149 549.48 19.8 549.719 19.7635C549.958 19.727 550.16 19.6392 550.325 19.5ZM547.72 29.1051C548.181 29.1051 548.577 28.9891 548.909 28.7571C549.243 28.5251 549.5 28.1986 549.679 27.7777C549.858 27.3535 549.948 26.8546 549.948 26.2812C549.948 25.7244 549.856 25.2505 549.674 24.8594C549.495 24.4683 549.238 24.17 548.904 23.9645C548.569 23.759 548.168 23.6562 547.7 23.6562C547.359 23.6562 547.052 23.7143 546.781 23.8303C546.509 23.9463 546.277 24.117 546.085 24.3423C545.892 24.5677 545.743 24.8428 545.637 25.1676C545.535 25.4924 545.48 25.8636 545.473 26.2812C545.473 27.1364 545.674 27.8208 546.075 28.3345C546.476 28.8482 547.024 29.1051 547.72 29.1051ZM552.24 30V28.9062H552.518C552.747 28.9062 552.937 28.8615 553.09 28.772C553.242 28.6792 553.365 28.5185 553.458 28.2898C553.554 28.0578 553.627 27.7363 553.676 27.3253C553.729 26.911 553.767 26.384 553.791 25.7443L553.93 22.3636H559.021V30H557.847V23.4574H555.044L554.924 26.1818C554.898 26.8082 554.841 27.3601 554.755 27.8374C554.672 28.3113 554.545 28.709 554.372 29.0305C554.203 29.352 553.978 29.594 553.696 29.7564C553.414 29.9188 553.061 30 552.637 30H552.24ZM564.276 30.1591C563.586 30.1591 562.981 29.995 562.461 29.6669C561.944 29.3388 561.54 28.8797 561.248 28.2898C560.96 27.6998 560.816 27.0104 560.816 26.2216C560.816 25.4261 560.96 24.7318 561.248 24.1385C561.54 23.5452 561.944 23.0845 562.461 22.7564C562.981 22.4283 563.586 22.2642 564.276 22.2642C564.965 22.2642 565.568 22.4283 566.085 22.7564C566.606 23.0845 567.01 23.5452 567.298 24.1385C567.59 24.7318 567.736 25.4261 567.736 26.2216C567.736 27.0104 567.59 27.6998 567.298 28.2898C567.01 28.8797 566.606 29.3388 566.085 29.6669C565.568 29.995 564.965 30.1591 564.276 30.1591ZM564.276 29.1051C564.799 29.1051 565.23 28.9709 565.568 28.7024C565.906 28.4339 566.157 28.081 566.319 27.6435C566.481 27.206 566.563 26.732 566.563 26.2216C566.563 25.7112 566.481 25.2356 566.319 24.7947C566.157 24.3539 565.906 23.9976 565.568 23.7259C565.23 23.4541 564.799 23.3182 564.276 23.3182C563.752 23.3182 563.321 23.4541 562.983 23.7259C562.645 23.9976 562.395 24.3539 562.232 24.7947C562.07 25.2356 561.989 25.7112 561.989 26.2216C561.989 26.732 562.07 27.206 562.232 27.6435C562.395 28.081 562.645 28.4339 562.983 28.7024C563.321 28.9709 563.752 29.1051 564.276 29.1051ZM574.24 22.3636V23.4574H570.7V30H569.527V22.3636H574.24ZM578.659 30.1591C577.969 30.1591 577.364 29.995 576.844 29.6669C576.327 29.3388 575.923 28.8797 575.631 28.2898C575.343 27.6998 575.198 27.0104 575.198 26.2216C575.198 25.4261 575.343 24.7318 575.631 24.1385C575.923 23.5452 576.327 23.0845 576.844 22.7564C577.364 22.4283 577.969 22.2642 578.659 22.2642C579.348 22.2642 579.951 22.4283 580.468 22.7564C580.989 23.0845 581.393 23.5452 581.681 24.1385C581.973 24.7318 582.119 25.4261 582.119 26.2216C582.119 27.0104 581.973 27.6998 581.681 28.2898C581.393 28.8797 580.989 29.3388 580.468 29.6669C579.951 29.995 579.348 30.1591 578.659 30.1591ZM578.659 29.1051C579.182 29.1051 579.613 28.9709 579.951 28.7024C580.289 28.4339 580.539 28.081 580.702 27.6435C580.864 27.206 580.945 26.732 580.945 26.2216C580.945 25.7112 580.864 25.2356 580.702 24.7947C580.539 24.3539 580.289 23.9976 579.951 23.7259C579.613 23.4541 579.182 23.3182 578.659 23.3182C578.135 23.3182 577.704 23.4541 577.366 23.7259C577.028 23.9976 576.778 24.3539 576.615 24.7947C576.453 25.2356 576.372 25.7112 576.372 26.2216C576.372 26.732 576.453 27.206 576.615 27.6435C576.778 28.081 577.028 28.4339 577.366 28.7024C577.704 28.9709 578.135 29.1051 578.659 29.1051ZM583.91 30V22.3636H587.032C587.854 22.3636 588.507 22.5492 588.991 22.9205C589.475 23.2917 589.717 23.7822 589.717 24.392C589.717 24.8561 589.579 25.2157 589.304 25.4709C589.029 25.7228 588.676 25.8935 588.245 25.983C588.527 26.0227 588.8 26.1222 589.065 26.2812C589.334 26.4403 589.556 26.6591 589.732 26.9375C589.907 27.2126 589.995 27.5507 589.995 27.9517C589.995 28.3428 589.896 28.6925 589.697 29.0007C589.498 29.3089 589.213 29.5526 588.842 29.7315C588.47 29.9105 588.026 30 587.509 30H583.91ZM585.023 28.9261H587.509C587.914 28.9261 588.23 28.83 588.459 28.6378C588.688 28.4455 588.802 28.1837 588.802 27.8523C588.802 27.4579 588.688 27.148 588.459 26.9226C588.23 26.6939 587.914 26.5795 587.509 26.5795H585.023V28.9261ZM585.023 25.5653H587.032C587.347 25.5653 587.617 25.5223 587.842 25.4361C588.068 25.3466 588.24 25.2206 588.359 25.0582C588.482 24.8925 588.543 24.697 588.543 24.4716C588.543 24.1501 588.409 23.8982 588.141 23.7159C587.872 23.5303 587.503 23.4375 587.032 23.4375H585.023V25.5653Z"
        fill="#191E28" />
    <path
        d="M488.083 18H482.833C481.225 18 479.917 19.3084 479.917 20.9167V22H479.625C478.178 22 477 23.1778 477 24.625V29.9583C477 31.0836 477.915 31.9994 479.041 32H488.083C489.692 32 491 30.6916 491 29.0833V20.9167C491 19.3084 489.692 18 488.083 18ZM479.917 29.9583C479.917 30.4408 479.524 30.8333 479.042 30.8333C478.559 30.8333 478.167 30.4408 478.167 29.9583V24.625C478.167 23.8212 478.821 23.1667 479.625 23.1667H479.917V29.9583ZM489.833 29.0833C489.833 30.0482 489.048 30.8333 488.083 30.8333H480.886C481.012 30.5679 481.083 30.2716 481.083 29.9583V20.9167C481.083 19.9518 481.868 19.1667 482.833 19.1667H488.083C489.048 19.1667 489.833 19.9518 489.833 20.9167V29.0833ZM488.083 22.5833C488.083 22.9053 487.822 23.1667 487.5 23.1667H483.583C483.261 23.1667 483 22.9053 483 22.5833C483 22.2613 483.261 22 483.583 22H487.5C487.822 22 488.083 22.2613 488.083 22.5833ZM487 25.4167C487 25.7387 486.739 26 486.417 26H483.583C483.261 26 483 25.7387 483 25.4167C483 25.0947 483.261 24.8333 483.583 24.8333H486.417C486.739 24.8333 487 25.0947 487 25.4167Z"
        fill="#191E28" />
    <path
        d="M615 16.5C615 16.2239 615.224 16 615.5 16C615.776 16 616 16.2239 616 16.5V33.5C616 33.7761 615.776 34 615.5 34C615.224 34 615 33.7761 615 33.5V16.5Z"
        fill="#B4BED2" />
</svg>