<svg width="1920" height="80" viewBox="0 0 1920 80" fill="none" xmlns="http://www.w3.org/2000/svg">
<path d="M0 0H1920V80H0V0Z" fill="white"/>
<path d="M571 27V48.9997H566.305V27H571Z" fill="#39C051"/>
<path d="M559.158 39.5708V36.428H549.767V33.2852H560.723C562.81 33.2852 563.853 34.3328 563.853 36.428V48.9993H551.332C549.246 48.9993 548.202 47.9516 548.202 45.8564V42.7136C548.202 40.6184 549.246 39.5708 551.332 39.5708H559.158ZM552.897 42.7136V45.8564H559.158V42.7136H552.897Z" fill="#39C051"/>
<path d="M541.055 48.9207V36.428H534.795V48.9207H530.1V33.2852H542.62C544.707 33.2852 545.75 34.3328 545.75 36.428V48.9207H541.055Z" fill="#39C051"/>
<path d="M527.647 33.2852V36.428H521.387V48.9993H516.692V36.428C516.692 34.3328 517.735 33.2852 519.822 33.2852H527.647Z" fill="#39C051"/>
<path d="M503.284 33.2852V45.7779H509.544V33.2852H514.239V48.9207H501.719C499.632 48.9207 498.589 47.8731 498.589 45.7779V33.2852H503.284Z" fill="#39C051"/>
<path d="M480.486 36.428C480.486 34.3328 481.529 33.2852 483.616 33.2852H493.007C495.094 33.2852 496.137 34.3328 496.137 36.428V45.8564C496.137 47.9516 495.094 48.9993 493.007 48.9993H483.616C481.529 48.9993 480.486 47.9516 480.486 45.8564V36.428ZM485.181 36.428V45.8564H491.442V36.428H485.181Z" fill="#39C051"/>
<path d="M467.079 49.0005V45.8577H473.339V30.1436H478.035V45.8577C478.035 47.9529 476.991 49.0005 474.905 49.0005H467.079Z" fill="#39C051"/>
<path d="M448.977 36.428C448.977 34.3328 450.02 33.2852 452.107 33.2852H461.497C463.584 33.2852 464.627 34.3328 464.627 36.428V45.8564C464.627 47.9516 463.584 48.9993 461.497 48.9993H452.107C450.02 48.9993 448.977 47.9516 448.977 45.8564V36.428ZM453.672 36.428V45.8564H459.932V36.428H453.672Z" fill="#18A3FA"/>
<path d="M441.829 48.9207V36.428H435.568V48.9207H430.873V33.2852H443.394C445.48 33.2852 446.524 34.3328 446.524 36.428V48.9207H441.829Z" fill="#18A3FA"/>
<path d="M423.726 48.9207V36.428H417.466V48.9207H412.771V33.2852H425.291C427.378 33.2852 428.421 34.3328 428.421 36.428V48.9207H423.726Z" fill="#18A3FA"/>
<path d="M410.319 48.9993H397.798C395.711 48.9993 394.668 47.9516 394.668 45.8564V36.428C394.668 34.3328 395.711 33.2852 397.798 33.2852H407.189C409.275 33.2852 410.319 34.3328 410.319 36.428V42.7136H399.363V45.8564H410.319V48.9993ZM399.363 36.428V39.5708H405.624V36.428H399.363Z" fill="#18A3FA"/>
<path d="M392.216 30.1436V33.2864L381.26 45.8577H392.216V49.0005H375V45.8577L385.956 33.2864H375V30.1436H392.216Z" fill="#18A3FA"/>
<path d="M933.176 34.3636V46H931.767V35.6136H925.903V46H924.494V34.3636H933.176ZM935.837 49.2727V37.2727H937.132V38.6591H937.291C937.39 38.5076 937.526 38.3144 937.7 38.0795C937.878 37.8409 938.132 37.6288 938.462 37.4432C938.795 37.2538 939.246 37.1591 939.814 37.1591C940.549 37.1591 941.196 37.3428 941.757 37.7102C942.318 38.0777 942.755 38.5985 943.07 39.2727C943.384 39.947 943.541 40.7424 943.541 41.6591C943.541 42.5833 943.384 43.3845 943.07 44.0625C942.755 44.7367 942.32 45.2595 941.763 45.6307C941.206 45.9981 940.564 46.1818 939.837 46.1818C939.276 46.1818 938.827 46.089 938.49 45.9034C938.153 45.714 937.893 45.5 937.712 45.2614C937.53 45.0189 937.39 44.8182 937.291 44.6591H937.178V49.2727H935.837ZM937.155 41.6364C937.155 42.2955 937.251 42.8769 937.445 43.3807C937.638 43.8807 937.92 44.2727 938.291 44.5568C938.662 44.8371 939.117 44.9773 939.655 44.9773C940.215 44.9773 940.683 44.8295 941.058 44.5341C941.437 44.2348 941.721 43.8333 941.911 43.3295C942.104 42.822 942.2 42.2576 942.2 41.6364C942.2 41.0227 942.106 40.4697 941.916 39.9773C941.731 39.4811 941.448 39.089 941.07 38.8011C940.695 38.5095 940.223 38.3636 939.655 38.3636C939.109 38.3636 938.651 38.5019 938.28 38.7784C937.909 39.0511 937.628 39.4337 937.439 39.9261C937.25 40.4148 937.155 40.9848 937.155 41.6364ZM949.132 46.1818C948.344 46.1818 947.653 45.9943 947.058 45.6193C946.467 45.2443 946.005 44.7197 945.672 44.0455C945.342 43.3712 945.178 42.5833 945.178 41.6818C945.178 40.7727 945.342 39.9792 945.672 39.3011C946.005 38.6231 946.467 38.0966 947.058 37.7216C947.653 37.3466 948.344 37.1591 949.132 37.1591C949.92 37.1591 950.609 37.3466 951.2 37.7216C951.795 38.0966 952.257 38.6231 952.587 39.3011C952.92 39.9792 953.087 40.7727 953.087 41.6818C953.087 42.5833 952.92 43.3712 952.587 44.0455C952.257 44.7197 951.795 45.2443 951.2 45.6193C950.609 45.9943 949.92 46.1818 949.132 46.1818ZM949.132 44.9773C949.731 44.9773 950.223 44.8239 950.609 44.517C950.996 44.2102 951.282 43.8068 951.467 43.3068C951.653 42.8068 951.746 42.2652 951.746 41.6818C951.746 41.0985 951.653 40.5549 951.467 40.0511C951.282 39.5473 950.996 39.1402 950.609 38.8295C950.223 38.5189 949.731 38.3636 949.132 38.3636C948.534 38.3636 948.041 38.5189 947.655 38.8295C947.268 39.1402 946.982 39.5473 946.797 40.0511C946.611 40.5549 946.518 41.0985 946.518 41.6818C946.518 42.2652 946.611 42.8068 946.797 43.3068C946.982 43.8068 947.268 44.2102 947.655 44.517C948.041 44.8239 948.534 44.9773 949.132 44.9773ZM954.202 48.5V44.75H954.929C955.107 44.5644 955.26 44.3636 955.389 44.1477C955.518 43.9318 955.63 43.6761 955.724 43.3807C955.823 43.0814 955.906 42.7178 955.974 42.2898C956.043 41.858 956.103 41.3371 956.156 40.7273L956.452 37.2727H961.997V44.75H963.338V48.5H961.997V46H955.543V48.5H954.202ZM956.452 44.75H960.656V38.5227H957.702L957.474 40.7273C957.38 41.6402 957.262 42.4375 957.122 43.1193C956.982 43.8011 956.759 44.3447 956.452 44.75ZM965.982 49.2727C965.754 49.2727 965.552 49.2538 965.374 49.2159C965.196 49.1818 965.072 49.1477 965.004 49.1136L965.345 47.9318C965.671 48.0152 965.959 48.0455 966.209 48.0227C966.459 48 966.68 47.8883 966.874 47.6875C967.071 47.4905 967.25 47.1705 967.413 46.7273L967.663 46.0455L964.436 37.2727H965.891L968.3 44.2273H968.391L970.8 37.2727H972.254L968.55 47.2727C968.383 47.7235 968.177 48.0966 967.93 48.392C967.684 48.6913 967.398 48.9129 967.072 49.0568C966.75 49.2008 966.387 49.2727 965.982 49.2727ZM974.024 46V37.2727H975.365V41.0682H976.251L979.388 37.2727H981.115L977.592 41.4773L981.161 46H979.433L976.57 42.3182H975.365V46H974.024ZM982.118 38.5227V37.2727H989.209V38.5227H986.345V46H985.004V38.5227H982.118ZM992.324 40.4318H994.824C995.847 40.4318 996.629 40.6913 997.17 41.2102C997.712 41.7292 997.983 42.3864 997.983 43.1818C997.983 43.7045 997.862 44.1799 997.619 44.608C997.377 45.0322 997.021 45.3712 996.551 45.625C996.081 45.875 995.506 46 994.824 46H991.165V37.2727H992.506V44.75H994.824C995.354 44.75 995.79 44.6098 996.131 44.3295C996.472 44.0492 996.642 43.6894 996.642 43.25C996.642 42.7879 996.472 42.411 996.131 42.1193C995.79 41.8277 995.354 41.6818 994.824 41.6818H992.324V40.4318ZM999.369 46V37.2727H1000.71V46H999.369Z" fill="#191E28"/>
<path d="M903.25 31H901C900.204 31 899.441 31.3161 898.879 31.8787C898.316 32.4413 898 33.2043 898 34V36.25C898 37.0456 898.316 37.8087 898.879 38.3713C899.441 38.9339 900.204 39.25 901 39.25H903.25C904.046 39.25 904.809 38.9339 905.371 38.3713C905.934 37.8087 906.25 37.0456 906.25 36.25V34C906.25 33.2043 905.934 32.4413 905.371 31.8787C904.809 31.3161 904.046 31 903.25 31ZM904.75 36.25C904.75 36.6478 904.592 37.0293 904.311 37.3106C904.029 37.5919 903.648 37.75 903.25 37.75H901C900.602 37.75 900.221 37.5919 899.939 37.3106C899.658 37.0293 899.5 36.6478 899.5 36.25V34C899.5 33.6022 899.658 33.2206 899.939 32.9393C900.221 32.658 900.602 32.5 901 32.5H903.25C903.648 32.5 904.029 32.658 904.311 32.9393C904.592 33.2206 904.75 33.6022 904.75 34V36.25Z" fill="#191E28"/>
<path d="M913 31H910.75C909.954 31 909.191 31.3161 908.629 31.8787C908.066 32.4413 907.75 33.2043 907.75 34V36.25C907.75 37.0456 908.066 37.8087 908.629 38.3713C909.191 38.9339 909.954 39.25 910.75 39.25H913C913.796 39.25 914.559 38.9339 915.121 38.3713C915.684 37.8087 916 37.0456 916 36.25V34C916 33.2043 915.684 32.4413 915.121 31.8787C914.559 31.3161 913.796 31 913 31ZM914.5 36.25C914.5 36.6478 914.342 37.0293 914.061 37.3106C913.779 37.5919 913.398 37.75 913 37.75H910.75C910.352 37.75 909.971 37.5919 909.689 37.3106C909.408 37.0293 909.25 36.6478 909.25 36.25V34C909.25 33.6022 909.408 33.2206 909.689 32.9393C909.971 32.658 910.352 32.5 910.75 32.5H913C913.398 32.5 913.779 32.658 914.061 32.9393C914.342 33.2206 914.5 33.6022 914.5 34V36.25Z" fill="#191E28"/>
<path d="M903.25 40.75H901C900.204 40.75 899.441 41.0661 898.879 41.6287C898.316 42.1913 898 42.9543 898 43.75V46C898 46.7956 898.316 47.5587 898.879 48.1213C899.441 48.6839 900.204 49 901 49H903.25C904.046 49 904.809 48.6839 905.371 48.1213C905.934 47.5587 906.25 46.7956 906.25 46V43.75C906.25 42.9543 905.934 42.1913 905.371 41.6287C904.809 41.0661 904.046 40.75 903.25 40.75ZM904.75 46C904.75 46.3978 904.592 46.7793 904.311 47.0606C904.029 47.3419 903.648 47.5 903.25 47.5H901C900.602 47.5 900.221 47.3419 899.939 47.0606C899.658 46.7793 899.5 46.3978 899.5 46V43.75C899.5 43.3522 899.658 42.9706 899.939 42.6893C900.221 42.408 900.602 42.25 901 42.25H903.25C903.648 42.25 904.029 42.408 904.311 42.6893C904.592 42.9706 904.75 43.3522 904.75 43.75V46Z" fill="#191E28"/>
<path d="M913 40.75H910.75C909.954 40.75 909.191 41.0661 908.629 41.6287C908.066 42.1913 907.75 42.9543 907.75 43.75V46C907.75 46.7956 908.066 47.5587 908.629 48.1213C909.191 48.6839 909.954 49 910.75 49H913C913.796 49 914.559 48.6839 915.121 48.1213C915.684 47.5587 916 46.7956 916 46V43.75C916 42.9543 915.684 42.1913 915.121 41.6287C914.559 41.0661 913.796 40.75 913 40.75ZM914.5 46C914.5 46.3978 914.342 46.7793 914.061 47.0606C913.779 47.3419 913.398 47.5 913 47.5H910.75C910.352 47.5 909.971 47.3419 909.689 47.0606C909.408 46.7793 909.25 46.3978 909.25 46V43.75C909.25 43.3522 909.408 42.9706 909.689 42.6893C909.971 42.408 910.352 42.25 910.75 42.25H913C913.398 42.25 913.779 42.408 914.061 42.6893C914.342 42.9706 914.5 43.3522 914.5 43.75V46Z" fill="#191E28"/>
<path d="M1066.23 38H1064.82C1064.74 37.5947 1064.6 37.2386 1064.39 36.9318C1064.18 36.625 1063.93 36.3674 1063.64 36.1591C1063.35 35.947 1063.02 35.7879 1062.67 35.6818C1062.31 35.5758 1061.94 35.5227 1061.55 35.5227C1060.85 35.5227 1060.21 35.7008 1059.64 36.0568C1059.07 36.4129 1058.62 36.9375 1058.28 37.6307C1057.95 38.3239 1057.78 39.1742 1057.78 40.1818C1057.78 41.1894 1057.95 42.0398 1058.28 42.733C1058.62 43.4261 1059.07 43.9508 1059.64 44.3068C1060.21 44.6629 1060.85 44.8409 1061.55 44.8409C1061.94 44.8409 1062.31 44.7879 1062.67 44.6818C1063.02 44.5758 1063.35 44.4186 1063.64 44.2102C1063.93 43.9981 1064.18 43.7386 1064.39 43.4318C1064.6 43.1212 1064.74 42.7652 1064.82 42.3636H1066.23C1066.13 42.9583 1065.93 43.4905 1065.65 43.9602C1065.37 44.4299 1065.03 44.8295 1064.61 45.1591C1064.19 45.4848 1063.72 45.733 1063.21 45.9034C1062.69 46.0739 1062.14 46.1591 1061.55 46.1591C1060.56 46.1591 1059.68 45.9167 1058.9 45.4318C1058.13 44.947 1057.52 44.2576 1057.08 43.3636C1056.64 42.4697 1056.42 41.4091 1056.42 40.1818C1056.42 38.9545 1056.64 37.8939 1057.08 37C1057.52 36.1061 1058.13 35.4167 1058.9 34.9318C1059.68 34.447 1060.56 34.2045 1061.55 34.2045C1062.14 34.2045 1062.69 34.2898 1063.21 34.4602C1063.72 34.6307 1064.19 34.8807 1064.61 35.2102C1065.03 35.536 1065.37 35.9337 1065.65 36.4034C1065.93 36.8693 1066.13 37.4015 1066.23 38ZM1071.87 46.1818C1071.09 46.1818 1070.4 45.9943 1069.8 45.6193C1069.21 45.2443 1068.75 44.7197 1068.41 44.0455C1068.08 43.3712 1067.92 42.5833 1067.92 41.6818C1067.92 40.7727 1068.08 39.9792 1068.41 39.3011C1068.75 38.6231 1069.21 38.0966 1069.8 37.7216C1070.4 37.3466 1071.09 37.1591 1071.87 37.1591C1072.66 37.1591 1073.35 37.3466 1073.94 37.7216C1074.54 38.0966 1075 38.6231 1075.33 39.3011C1075.66 39.9792 1075.83 40.7727 1075.83 41.6818C1075.83 42.5833 1075.66 43.3712 1075.33 44.0455C1075 44.7197 1074.54 45.2443 1073.94 45.6193C1073.35 45.9943 1072.66 46.1818 1071.87 46.1818ZM1071.87 44.9773C1072.47 44.9773 1072.97 44.8239 1073.35 44.517C1073.74 44.2102 1074.02 43.8068 1074.21 43.3068C1074.4 42.8068 1074.49 42.2652 1074.49 41.6818C1074.49 41.0985 1074.4 40.5549 1074.21 40.0511C1074.02 39.5473 1073.74 39.1402 1073.35 38.8295C1072.97 38.5189 1072.47 38.3636 1071.87 38.3636C1071.28 38.3636 1070.78 38.5189 1070.4 38.8295C1070.01 39.1402 1069.72 39.5473 1069.54 40.0511C1069.35 40.5549 1069.26 41.0985 1069.26 41.6818C1069.26 42.2652 1069.35 42.8068 1069.54 43.3068C1069.72 43.8068 1070.01 44.2102 1070.4 44.517C1070.78 44.8239 1071.28 44.9773 1071.87 44.9773ZM1081.42 46.1818C1080.63 46.1818 1079.94 45.9943 1079.35 45.6193C1078.76 45.2443 1078.29 44.7197 1077.96 44.0455C1077.63 43.3712 1077.47 42.5833 1077.47 41.6818C1077.47 40.7727 1077.63 39.9792 1077.96 39.3011C1078.29 38.6231 1078.76 38.0966 1079.35 37.7216C1079.94 37.3466 1080.63 37.1591 1081.42 37.1591C1082.21 37.1591 1082.9 37.3466 1083.49 37.7216C1084.08 38.0966 1084.55 38.6231 1084.88 39.3011C1085.21 39.9792 1085.38 40.7727 1085.38 41.6818C1085.38 42.5833 1085.21 43.3712 1084.88 44.0455C1084.55 44.7197 1084.08 45.2443 1083.49 45.6193C1082.9 45.9943 1082.21 46.1818 1081.42 46.1818ZM1081.42 44.9773C1082.02 44.9773 1082.51 44.8239 1082.9 44.517C1083.28 44.2102 1083.57 43.8068 1083.76 43.3068C1083.94 42.8068 1084.03 42.2652 1084.03 41.6818C1084.03 41.0985 1083.94 40.5549 1083.76 40.0511C1083.57 39.5473 1083.28 39.1402 1082.9 38.8295C1082.51 38.5189 1082.02 38.3636 1081.42 38.3636C1080.82 38.3636 1080.33 38.5189 1079.94 38.8295C1079.56 39.1402 1079.27 39.5473 1079.09 40.0511C1078.9 40.5549 1078.81 41.0985 1078.81 41.6818C1078.81 42.2652 1078.9 42.8068 1079.09 43.3068C1079.27 43.8068 1079.56 44.2102 1079.94 44.517C1080.33 44.8239 1080.82 44.9773 1081.42 44.9773ZM1093.9 34L1094.58 34.8182C1094.32 35.0758 1094.01 35.2557 1093.66 35.358C1093.31 35.4602 1092.92 35.5227 1092.48 35.5455C1092.04 35.5682 1091.55 35.5909 1091.01 35.6136C1090.41 35.6364 1089.91 35.7841 1089.51 36.0568C1089.11 36.3295 1088.8 36.7235 1088.59 37.2386C1088.37 37.7538 1088.23 38.3864 1088.17 39.1364H1088.29C1088.58 38.5909 1088.99 38.1894 1089.51 37.9318C1090.04 37.6742 1090.6 37.5455 1091.2 37.5455C1091.88 37.5455 1092.49 37.7045 1093.04 38.0227C1093.58 38.3409 1094.01 38.8125 1094.33 39.4375C1094.65 40.0625 1094.81 40.8333 1094.81 41.75C1094.81 42.6629 1094.65 43.4508 1094.32 44.1136C1094 44.7765 1093.55 45.2879 1092.96 45.6477C1092.38 46.0038 1091.7 46.1818 1090.92 46.1818C1090.14 46.1818 1089.46 45.9981 1088.87 45.6307C1088.28 45.2595 1087.83 44.7102 1087.5 43.983C1087.18 43.2519 1087.01 42.3485 1087.01 41.2727V40.3409C1087.01 38.3977 1087.34 36.9242 1088 35.9205C1088.67 34.9167 1089.66 34.3977 1090.99 34.3636C1091.46 34.3485 1091.88 34.3447 1092.25 34.3523C1092.61 34.3598 1092.93 34.3428 1093.21 34.3011C1093.48 34.2595 1093.71 34.1591 1093.9 34ZM1090.92 44.9773C1091.45 44.9773 1091.9 44.8447 1092.28 44.5795C1092.66 44.3144 1092.96 43.9413 1093.16 43.4602C1093.37 42.9754 1093.47 42.4053 1093.47 41.75C1093.47 41.1136 1093.36 40.572 1093.16 40.125C1092.95 39.678 1092.66 39.3371 1092.27 39.1023C1091.89 38.8674 1091.43 38.75 1090.9 38.75C1090.51 38.75 1090.16 38.8163 1089.85 38.9489C1089.54 39.0814 1089.27 39.2765 1089.05 39.5341C1088.83 39.7917 1088.66 40.1061 1088.54 40.4773C1088.42 40.8485 1088.36 41.2727 1088.35 41.75C1088.35 42.7273 1088.58 43.5095 1089.04 44.0966C1089.5 44.6837 1090.13 44.9773 1090.92 44.9773ZM1108.77 44.75L1108.61 48.5H1107.22V46H1106.09V44.75H1108.77ZM1096.86 37.2727H1098.2V44.75H1101.5V37.2727H1102.84V44.75H1106.13V37.2727H1107.47V46H1096.86V37.2727ZM1114.28 46.1818C1113.44 46.1818 1112.72 45.9962 1112.11 45.625C1111.5 45.25 1111.03 44.7273 1110.71 44.0568C1110.38 43.3826 1110.22 42.5985 1110.22 41.7045C1110.22 40.8106 1110.38 40.0227 1110.71 39.3409C1111.03 38.6553 1111.49 38.1212 1112.08 37.7386C1112.67 37.3523 1113.36 37.1591 1114.15 37.1591C1114.6 37.1591 1115.05 37.2348 1115.5 37.3864C1115.94 37.5379 1116.34 37.7841 1116.71 38.125C1117.07 38.4621 1117.36 38.9091 1117.57 39.4659C1117.79 40.0227 1117.9 40.7083 1117.9 41.5227V42.0909H1111.17V40.9318H1116.53C1116.53 40.4394 1116.44 40 1116.24 39.6136C1116.05 39.2273 1115.77 38.9223 1115.41 38.6989C1115.05 38.4754 1114.63 38.3636 1114.15 38.3636C1113.61 38.3636 1113.15 38.4962 1112.76 38.7614C1112.38 39.0227 1112.08 39.3636 1111.87 39.7841C1111.66 40.2045 1111.56 40.6553 1111.56 41.1364V41.9091C1111.56 42.5682 1111.67 43.1269 1111.9 43.5852C1112.13 44.0398 1112.45 44.3864 1112.86 44.625C1113.27 44.8598 1113.74 44.9773 1114.28 44.9773C1114.64 44.9773 1114.96 44.928 1115.24 44.8295C1115.53 44.7273 1115.78 44.5758 1115.98 44.375C1116.19 44.1705 1116.35 43.9167 1116.47 43.6136L1117.76 43.9773C1117.63 44.4167 1117.4 44.803 1117.07 45.1364C1116.75 45.4659 1116.35 45.7235 1115.88 45.9091C1115.41 46.0909 1114.88 46.1818 1114.28 46.1818ZM1123.48 46.1818C1122.67 46.1818 1121.96 45.9886 1121.37 45.6023C1120.78 45.2159 1120.32 44.6837 1120.01 44.0057C1119.69 43.3277 1119.53 42.553 1119.53 41.6818C1119.53 40.7955 1119.69 40.0133 1120.02 39.3352C1120.35 38.6534 1120.81 38.1212 1121.39 37.7386C1121.98 37.3523 1122.67 37.1591 1123.46 37.1591C1124.07 37.1591 1124.63 37.2727 1125.12 37.5C1125.61 37.7273 1126.02 38.0455 1126.33 38.4545C1126.64 38.8636 1126.84 39.3409 1126.92 39.8864H1125.57C1125.47 39.4886 1125.25 39.1364 1124.89 38.8295C1124.54 38.5189 1124.07 38.3636 1123.48 38.3636C1122.96 38.3636 1122.5 38.5 1122.11 38.7727C1121.72 39.0417 1121.41 39.4223 1121.19 39.9148C1120.98 40.4034 1120.87 40.9773 1120.87 41.6364C1120.87 42.3106 1120.98 42.8977 1121.19 43.3977C1121.4 43.8977 1121.71 44.286 1122.1 44.5625C1122.49 44.839 1122.95 44.9773 1123.48 44.9773C1123.83 44.9773 1124.15 44.9167 1124.43 44.7955C1124.72 44.6742 1124.96 44.5 1125.15 44.2727C1125.35 44.0455 1125.49 43.7727 1125.57 43.4545H1126.92C1126.84 43.9697 1126.65 44.4337 1126.35 44.8466C1126.06 45.2557 1125.67 45.5814 1125.18 45.8239C1124.69 46.0625 1124.13 46.1818 1123.48 46.1818ZM1128.19 38.5227V37.2727H1135.28V38.5227H1132.42V46H1131.07V38.5227H1128.19ZM1137.24 46V37.2727H1140.8C1141.74 37.2727 1142.49 37.4848 1143.04 37.9091C1143.59 38.3333 1143.87 38.8939 1143.87 39.5909C1143.87 40.1212 1143.71 40.5322 1143.4 40.8239C1143.09 41.1117 1142.68 41.3068 1142.19 41.4091C1142.51 41.4545 1142.82 41.5682 1143.13 41.75C1143.43 41.9318 1143.69 42.1818 1143.89 42.5C1144.09 42.8144 1144.19 43.2008 1144.19 43.6591C1144.19 44.1061 1144.08 44.5057 1143.85 44.858C1143.62 45.2102 1143.3 45.4886 1142.87 45.6932C1142.45 45.8977 1141.94 46 1141.35 46H1137.24ZM1138.51 44.7727H1141.35C1141.81 44.7727 1142.17 44.6629 1142.43 44.4432C1142.7 44.2235 1142.83 43.9242 1142.83 43.5455C1142.83 43.0947 1142.7 42.7405 1142.43 42.483C1142.17 42.2216 1141.81 42.0909 1141.35 42.0909H1138.51V44.7727ZM1138.51 40.9318H1140.8C1141.16 40.9318 1141.47 40.8826 1141.73 40.7841C1141.99 40.6818 1142.18 40.5379 1142.32 40.3523C1142.46 40.1629 1142.53 39.9394 1142.53 39.6818C1142.53 39.3144 1142.38 39.0265 1142.07 38.8182C1141.76 38.6061 1141.34 38.5 1140.8 38.5H1138.51V40.9318ZM1149.76 46.1818C1148.98 46.1818 1148.29 45.9943 1147.69 45.6193C1147.1 45.2443 1146.64 44.7197 1146.3 44.0455C1145.98 43.3712 1145.81 42.5833 1145.81 41.6818C1145.81 40.7727 1145.98 39.9792 1146.3 39.3011C1146.64 38.6231 1147.1 38.0966 1147.69 37.7216C1148.29 37.3466 1148.98 37.1591 1149.76 37.1591C1150.55 37.1591 1151.24 37.3466 1151.83 37.7216C1152.43 38.0966 1152.89 38.6231 1153.22 39.3011C1153.55 39.9792 1153.72 40.7727 1153.72 41.6818C1153.72 42.5833 1153.55 43.3712 1153.22 44.0455C1152.89 44.7197 1152.43 45.2443 1151.83 45.6193C1151.24 45.9943 1150.55 46.1818 1149.76 46.1818ZM1149.76 44.9773C1150.36 44.9773 1150.86 44.8239 1151.24 44.517C1151.63 44.2102 1151.91 43.8068 1152.1 43.3068C1152.29 42.8068 1152.38 42.2652 1152.38 41.6818C1152.38 41.0985 1152.29 40.5549 1152.1 40.0511C1151.91 39.5473 1151.63 39.1402 1151.24 38.8295C1150.86 38.5189 1150.36 38.3636 1149.76 38.3636C1149.17 38.3636 1148.67 38.5189 1148.29 38.8295C1147.9 39.1402 1147.62 39.5473 1147.43 40.0511C1147.24 40.5549 1147.15 41.0985 1147.15 41.6818C1147.15 42.2652 1147.24 42.8068 1147.43 43.3068C1147.62 43.8068 1147.9 44.2102 1148.29 44.517C1148.67 44.8239 1149.17 44.9773 1149.76 44.9773Z" fill="#191E28"/>
<path d="M1040.13 38.9868C1040.13 39.6166 1039.62 40.1278 1039 40.1278C1038.38 40.1278 1037.88 39.6166 1037.88 38.9868C1037.88 38.357 1038.38 37.8458 1039 37.8458C1039.62 37.8458 1040.13 38.357 1040.13 38.9868ZM1042.75 37.8458C1042.13 37.8458 1041.63 38.357 1041.63 38.9868C1041.63 39.6166 1042.13 40.1278 1042.75 40.1278C1043.37 40.1278 1043.88 39.6166 1043.88 38.9868C1043.88 38.357 1043.37 37.8458 1042.75 37.8458ZM1035.25 37.8458C1034.63 37.8458 1034.13 38.357 1034.13 38.9868C1034.13 39.6166 1034.63 40.1278 1035.25 40.1278C1035.87 40.1278 1036.38 39.6166 1036.38 38.9868C1036.38 38.357 1035.87 37.8458 1035.25 37.8458ZM1048 34.0426V43.1704C1048 44.8484 1046.65 46.213 1045 46.213H1042.86L1039.98 48.6318C1039.7 48.8768 1039.36 49 1039.01 49C1038.65 49 1038.29 48.8722 1038 48.6144L1035.19 46.213H1033C1031.35 46.213 1030 44.8484 1030 43.1704V34.0426C1030 32.3646 1031.35 31 1033 31H1045C1046.65 31 1048 32.3646 1048 34.0426ZM1046.5 34.0426C1046.5 33.2036 1045.83 32.5213 1045 32.5213H1033C1032.17 32.5213 1031.5 33.2036 1031.5 34.0426V43.1704C1031.5 44.0094 1032.17 44.6917 1033 44.6917H1035.47C1035.64 44.6917 1035.81 44.7548 1035.95 44.8704L1038.99 47.4643L1042.11 44.8659C1042.25 44.7533 1042.42 44.6917 1042.59 44.6917H1045C1045.83 44.6917 1046.5 44.0094 1046.5 43.1704L1046.5 34.0426Z" fill="#191E28"/>
<path d="M792.518 46V34.3636H796.587C797.397 34.3636 798.066 34.5038 798.592 34.7841C799.119 35.0606 799.511 35.4337 799.768 35.9034C800.026 36.3693 800.155 36.8864 800.155 37.4545C800.155 37.9545 800.066 38.3674 799.888 38.6932C799.714 39.0189 799.482 39.2765 799.195 39.4659C798.911 39.6553 798.602 39.7955 798.268 39.8864V40C798.625 40.0227 798.982 40.1477 799.342 40.375C799.702 40.6023 800.003 40.928 800.246 41.3523C800.488 41.7765 800.609 42.2955 800.609 42.9091C800.609 43.4924 800.477 44.017 800.212 44.483C799.946 44.9489 799.528 45.3182 798.956 45.5909C798.384 45.8636 797.64 46 796.723 46H792.518ZM793.928 44.75H796.723C797.643 44.75 798.297 44.572 798.683 44.2159C799.073 43.8561 799.268 43.4205 799.268 42.9091C799.268 42.5152 799.168 42.1515 798.967 41.8182C798.767 41.4811 798.481 41.2121 798.109 41.0114C797.738 40.8068 797.299 40.7045 796.791 40.7045H793.928V44.75ZM793.928 39.4773H796.541C796.965 39.4773 797.348 39.3939 797.689 39.2273C798.034 39.0606 798.306 38.8258 798.507 38.5227C798.712 38.2197 798.814 37.8636 798.814 37.4545C798.814 36.9432 798.636 36.5095 798.28 36.1534C797.924 35.7936 797.359 35.6136 796.587 35.6136H793.928V39.4773ZM806.402 46.1818C805.561 46.1818 804.836 45.9962 804.226 45.625C803.62 45.25 803.152 44.7273 802.822 44.0568C802.497 43.3826 802.334 42.5985 802.334 41.7045C802.334 40.8106 802.497 40.0227 802.822 39.3409C803.152 38.6553 803.61 38.1212 804.197 37.7386C804.788 37.3523 805.478 37.1591 806.266 37.1591C806.72 37.1591 807.169 37.2348 807.612 37.3864C808.055 37.5379 808.459 37.7841 808.822 38.125C809.186 38.4621 809.476 38.9091 809.692 39.4659C809.908 40.0227 810.016 40.7083 810.016 41.5227V42.0909H803.288V40.9318H808.652C808.652 40.4394 808.554 40 808.357 39.6136C808.163 39.2273 807.887 38.9223 807.527 38.6989C807.171 38.4754 806.75 38.3636 806.266 38.3636C805.732 38.3636 805.269 38.4962 804.879 38.7614C804.493 39.0227 804.196 39.3636 803.987 39.7841C803.779 40.2045 803.675 40.6553 803.675 41.1364V41.9091C803.675 42.5682 803.788 43.1269 804.016 43.5852C804.247 44.0398 804.567 44.3864 804.976 44.625C805.385 44.8598 805.86 44.9773 806.402 44.9773C806.754 44.9773 807.072 44.928 807.357 44.8295C807.644 44.7273 807.893 44.5758 808.101 44.375C808.309 44.1705 808.47 43.9167 808.584 43.6136L809.879 43.9773C809.743 44.4167 809.514 44.803 809.192 45.1364C808.87 45.4659 808.472 45.7235 807.999 45.9091C807.525 46.0909 806.993 46.1818 806.402 46.1818ZM818.533 34L819.214 34.8182C818.949 35.0758 818.643 35.2557 818.294 35.358C817.946 35.4602 817.552 35.5227 817.112 35.5455C816.673 35.5682 816.184 35.5909 815.646 35.6136C815.04 35.6364 814.538 35.7841 814.141 36.0568C813.743 36.3295 813.436 36.7235 813.22 37.2386C813.004 37.7538 812.866 38.3864 812.805 39.1364H812.919C813.214 38.5909 813.624 38.1894 814.146 37.9318C814.669 37.6742 815.23 37.5455 815.828 37.5455C816.51 37.5455 817.124 37.7045 817.669 38.0227C818.214 38.3409 818.646 38.8125 818.964 39.4375C819.283 40.0625 819.442 40.8333 819.442 41.75C819.442 42.6629 819.279 43.4508 818.953 44.1136C818.631 44.7765 818.179 45.2879 817.595 45.6477C817.016 46.0038 816.336 46.1818 815.555 46.1818C814.775 46.1818 814.091 45.9981 813.504 45.6307C812.917 45.2595 812.461 44.7102 812.135 43.983C811.809 43.2519 811.646 42.3485 811.646 41.2727V40.3409C811.646 38.3977 811.976 36.9242 812.635 35.9205C813.298 34.9167 814.294 34.3977 815.624 34.3636C816.093 34.3485 816.512 34.3447 816.879 34.3523C817.247 34.3598 817.567 34.3428 817.839 34.3011C818.112 34.2595 818.343 34.1591 818.533 34ZM815.555 44.9773C816.082 44.9773 816.535 44.8447 816.913 44.5795C817.296 44.3144 817.589 43.9413 817.794 43.4602C817.999 42.9754 818.101 42.4053 818.101 41.75C818.101 41.1136 817.997 40.572 817.788 40.125C817.584 39.678 817.29 39.3371 816.908 39.1023C816.525 38.8674 816.067 38.75 815.533 38.75C815.143 38.75 814.792 38.8163 814.482 38.9489C814.171 39.0814 813.906 39.2765 813.686 39.5341C813.466 39.7917 813.296 40.1061 813.175 40.4773C813.057 40.8485 812.995 41.2727 812.987 41.75C812.987 42.7273 813.216 43.5095 813.675 44.0966C814.133 44.6837 814.76 44.9773 815.555 44.9773ZM822.834 44.0227L827.038 37.2727H828.584V46H827.243V39.25L823.061 46H821.493V37.2727H822.834V44.0227ZM836.881 41.0227V42.2727H832.062V41.0227H836.881ZM832.381 37.2727V46H831.04V37.2727H832.381ZM837.903 37.2727V46H836.562V37.2727H837.903ZM842.92 46.2045C842.367 46.2045 841.866 46.1004 841.415 45.892C840.964 45.6799 840.606 45.375 840.341 44.9773C840.076 44.5758 839.943 44.0909 839.943 43.5227C839.943 43.0227 840.042 42.6174 840.239 42.3068C840.436 41.9924 840.699 41.7462 841.028 41.5682C841.358 41.3902 841.722 41.2576 842.119 41.1705C842.521 41.0795 842.924 41.0076 843.33 40.9545C843.86 40.8864 844.29 40.8352 844.619 40.8011C844.953 40.7633 845.195 40.7008 845.347 40.6136C845.502 40.5265 845.58 40.375 845.58 40.1591V40.1136C845.58 39.553 845.426 39.1174 845.119 38.8068C844.816 38.4962 844.356 38.3409 843.739 38.3409C843.098 38.3409 842.597 38.4811 842.233 38.7614C841.869 39.0417 841.614 39.3409 841.466 39.6591L840.193 39.2045C840.42 38.6742 840.723 38.2614 841.102 37.9659C841.485 37.6667 841.902 37.4583 842.352 37.3409C842.807 37.2197 843.254 37.1591 843.693 37.1591C843.973 37.1591 844.295 37.1932 844.659 37.2614C845.027 37.3258 845.381 37.4602 845.722 37.6648C846.066 37.8693 846.352 38.178 846.58 38.5909C846.807 39.0038 846.92 39.5568 846.92 40.25V46H845.58V44.8182H845.511C845.42 45.0076 845.269 45.2102 845.057 45.4261C844.845 45.642 844.563 45.8258 844.21 45.9773C843.858 46.1288 843.428 46.2045 842.92 46.2045ZM843.125 45C843.655 45 844.102 44.8958 844.466 44.6875C844.833 44.4792 845.11 44.2102 845.295 43.8807C845.485 43.5511 845.58 43.2045 845.58 42.8409V41.6136C845.523 41.6818 845.398 41.7443 845.205 41.8011C845.015 41.8542 844.795 41.9015 844.545 41.9432C844.299 41.9811 844.059 42.0152 843.824 42.0455C843.593 42.072 843.405 42.0947 843.261 42.1136C842.913 42.1591 842.587 42.233 842.284 42.3352C841.985 42.4337 841.742 42.5833 841.557 42.7841C841.375 42.9811 841.284 43.25 841.284 43.5909C841.284 44.0568 841.456 44.4091 841.801 44.6477C842.15 44.8826 842.591 45 843.125 45ZM849.368 49.2727V37.2727H850.663V38.6591H850.822C850.921 38.5076 851.057 38.3144 851.232 38.0795C851.41 37.8409 851.663 37.6288 851.993 37.4432C852.326 37.2538 852.777 37.1591 853.345 37.1591C854.08 37.1591 854.728 37.3428 855.288 37.7102C855.849 38.0777 856.286 38.5985 856.601 39.2727C856.915 39.947 857.072 40.7424 857.072 41.6591C857.072 42.5833 856.915 43.3845 856.601 44.0625C856.286 44.7367 855.851 45.2595 855.294 45.6307C854.737 45.9981 854.095 46.1818 853.368 46.1818C852.807 46.1818 852.358 46.089 852.021 45.9034C851.684 45.714 851.425 45.5 851.243 45.2614C851.061 45.0189 850.921 44.8182 850.822 44.6591H850.709V49.2727H849.368ZM850.686 41.6364C850.686 42.2955 850.783 42.8769 850.976 43.3807C851.169 43.8807 851.451 44.2727 851.822 44.5568C852.194 44.8371 852.648 44.9773 853.186 44.9773C853.747 44.9773 854.214 44.8295 854.589 44.5341C854.968 44.2348 855.252 43.8333 855.442 43.3295C855.635 42.822 855.732 42.2576 855.732 41.6364C855.732 41.0227 855.637 40.4697 855.447 39.9773C855.262 39.4811 854.98 39.089 854.601 38.8011C854.226 38.5095 853.754 38.3636 853.186 38.3636C852.641 38.3636 852.182 38.5019 851.811 38.7784C851.44 39.0511 851.16 39.4337 850.97 39.9261C850.781 40.4148 850.686 40.9848 850.686 41.6364ZM860.277 40.4318H862.777C863.8 40.4318 864.582 40.6913 865.124 41.2102C865.665 41.7292 865.936 42.3864 865.936 43.1818C865.936 43.7045 865.815 44.1799 865.572 44.608C865.33 45.0322 864.974 45.3712 864.504 45.625C864.035 45.875 863.459 46 862.777 46H859.118V37.2727H860.459V44.75H862.777C863.307 44.75 863.743 44.6098 864.084 44.3295C864.425 44.0492 864.595 43.6894 864.595 43.25C864.595 42.7879 864.425 42.411 864.084 42.1193C863.743 41.8277 863.307 41.6818 862.777 41.6818H860.277V40.4318ZM867.322 46V37.2727H868.663V46H867.322Z" fill="#191E28"/>
<path d="M780.25 49H769.75C768.756 48.9988 767.803 48.6033 767.1 47.9003C766.397 47.1973 766.001 46.2442 766 45.25V34.75C766.001 33.7558 766.397 32.8027 767.1 32.0997C767.803 31.3967 768.756 31.0012 769.75 31H780.25C781.244 31.0012 782.197 31.3967 782.9 32.0997C783.603 32.8027 783.999 33.7558 784 34.75V45.25C783.999 46.2442 783.603 47.1973 782.9 47.9003C782.197 48.6033 781.244 48.9988 780.25 49ZM769.75 32.5C769.153 32.5 768.581 32.7371 768.159 33.159C767.737 33.581 767.5 34.1533 767.5 34.75V45.25C767.5 45.8467 767.737 46.419 768.159 46.841C768.581 47.2629 769.153 47.5 769.75 47.5H780.25C780.847 47.5 781.419 47.2629 781.841 46.841C782.263 46.419 782.5 45.8467 782.5 45.25V34.75C782.5 34.1533 782.263 33.581 781.841 33.159C781.419 32.7371 780.847 32.5 780.25 32.5H769.75ZM773.007 43.7537C772.694 43.7527 772.387 43.6691 772.117 43.5115C771.85 43.3588 771.629 43.138 771.475 42.8717C771.322 42.6054 771.242 42.3031 771.244 41.9958V38.0042C771.244 37.6969 771.324 37.3948 771.478 37.1284C771.631 36.862 771.852 36.6406 772.118 36.4864C772.384 36.3323 772.685 36.2507 772.993 36.2501C773.3 36.2494 773.602 36.3295 773.869 36.4825L777.828 38.4587C778.102 38.6072 778.333 38.8265 778.494 39.0938C778.656 39.3612 778.743 39.667 778.747 39.9794C778.751 40.2919 778.671 40.5997 778.516 40.8708C778.361 41.142 778.136 41.3668 777.864 41.5218L773.832 43.537C773.581 43.6804 773.296 43.7552 773.007 43.7537ZM772.988 37.7537C772.946 37.7537 772.906 37.7646 772.87 37.7852C772.831 37.8069 772.799 37.8387 772.777 37.8773C772.754 37.9159 772.743 37.9597 772.744 38.0042V41.9958C772.744 42.0396 772.756 42.0826 772.778 42.1206C772.8 42.1586 772.831 42.1902 772.869 42.2124C772.907 42.2345 772.95 42.2465 772.994 42.247C773.037 42.2476 773.081 42.2367 773.119 42.2155L777.151 40.1995C777.181 40.176 777.205 40.1456 777.221 40.1108C777.236 40.0761 777.243 40.0381 777.241 40C777.242 39.9554 777.231 39.9114 777.208 39.8728C777.186 39.8341 777.153 39.8024 777.114 39.781L773.159 37.8047C773.107 37.7731 773.048 37.7555 772.988 37.7537Z" fill="#191E28"/>
<path d="M1459 40C1459 37.1911 1459 35.7866 1459.67 34.7777C1459.97 34.341 1460.34 33.966 1460.78 33.6741C1461.79 33 1463.19 33 1466 33H1470C1472.81 33 1474.21 33 1475.22 33.6741C1475.66 33.966 1476.03 34.341 1476.33 34.7777C1477 35.7866 1477 37.1911 1477 40C1477 42.8089 1477 44.2134 1476.33 45.2223C1476.03 45.659 1475.66 46.034 1475.22 46.3259C1474.21 47 1472.81 47 1470 47H1466C1463.19 47 1461.79 47 1460.78 46.3259C1460.34 46.034 1459.97 45.659 1459.67 45.2223C1459 44.2134 1459 42.8089 1459 40Z" fill="#828CA0"/>
<path d="M1465 42.7212C1465 43.7409 1466.2 44.349 1467.09 43.7834L1471.4 41.0622C1472.2 40.5569 1472.2 39.4431 1471.4 38.9378L1467.09 36.2166C1466.2 35.651 1465 36.2591 1465 37.2788V42.7212Z" fill="white"/>
<path fill-rule="evenodd" clip-rule="evenodd" d="M1492.17 39.4574C1496.73 37.3406 1499.78 35.945 1501.3 35.2707C1505.64 33.3456 1506.55 33.0112 1507.14 33.0001C1507.27 32.9977 1507.56 33.0319 1507.74 33.1939C1507.9 33.3307 1507.95 33.5155 1507.97 33.6452C1507.99 33.775 1508.01 34.0705 1507.99 34.3014C1507.76 36.9367 1506.74 43.3322 1506.22 46.2838C1506 47.5328 1505.57 47.9516 1505.15 47.9926C1504.24 48.0816 1503.55 47.3529 1502.67 46.7384C1501.29 45.7769 1500.51 45.1783 1499.18 44.24C1497.63 43.1556 1498.63 42.5596 1499.51 41.5856C1499.74 41.3307 1503.75 37.4519 1503.83 37.1C1503.84 37.056 1503.85 36.892 1503.75 36.8053C1503.66 36.7187 1503.53 36.7483 1503.43 36.7719C1503.29 36.8053 1501.09 38.3542 1496.83 41.4185C1496.2 41.8753 1495.64 42.0978 1495.13 42.0862C1494.57 42.0733 1493.49 41.7497 1492.7 41.4731C1491.72 41.1338 1490.94 40.9544 1491 40.3782C1491.04 40.0781 1491.43 39.7712 1492.17 39.4574Z" fill="#828CA0"/>
<path d="M1534.98 47C1527.47 47 1523.18 42.1201 1523 34H1526.77C1526.89 39.9599 1529.66 42.4845 1531.86 43.005V34H1535.41V39.1401C1537.58 38.9189 1539.86 36.5766 1540.63 34H1544.18C1543.58 37.1752 1541.11 39.5175 1539.35 40.4804C1541.11 41.2612 1543.93 43.3043 1545 47H1541.1C1540.26 44.5275 1538.17 42.6146 1535.41 42.3543V47H1534.98Z" fill="#828CA0"/>
</svg>

