<svg width="102" height="26" viewBox="0 0 102 26" fill="none" xmlns="http://www.w3.org/2000/svg">
<path d="M0 7C0 3.13401 3.13401 0 7 0H95C98.866 0 102 3.13401 102 7V19C102 22.866 98.866 26 95 26H7C3.13401 26 0 22.866 0 19V7Z" fill="url(#paint0_linear_2105_1263)"/>
<path d="M20.9998 9.00154V15.3506H14.0092L20.0562 7.99546H5.11963C5.33341 7.13867 5.81022 6.38034 6.47582 5.83857C7.14141 5.29679 7.95845 5.00197 8.7997 5H16.5196L14.6992 7.11773H17.4514L18.912 5.42851C19.5379 5.76179 20.0644 6.27036 20.4336 6.8983C20.5288 7.05839 20.6122 7.22586 20.6833 7.39927C20.7643 7.59196 20.83 7.79137 20.8799 7.99546C20.9358 8.22279 20.9726 8.45484 20.99 8.68895C20.99 8.7138 20.99 8.73864 20.99 8.76348C20.9978 8.84214 20.9998 8.92081 20.9998 9.00154Z" fill="white"/>
<path d="M20.8644 18.0556C20.6649 18.8218 20.2536 19.5083 19.6826 20.0276C19.1117 20.547 18.407 20.8759 17.6581 20.9724H17.6444C17.4026 20.9952 17.1608 20.9993 16.919 20.9993H8.7017C7.72779 20.9731 6.80064 20.554 6.11175 19.8286C5.42287 19.1032 5.02488 18.1269 5 17.1013V17.0723C5 15.3044 5.0118 13.5386 5 11.7728C5 11.5658 5 11.3588 5 11.1518V10.4707H15.7552L11.7724 15.3479H10.3334L13.4532 11.5824H11.1826L5.8925 18.0556H20.8644Z" fill="white"/>
<path d="M93.8125 16.3315V12.4489H90.8958V16.3315H93.8125ZM88.7083 17.9959V8H90.8958V10.7845H94.5417C95.5139 10.7845 96 11.3393 96 12.4489V16.3315C96 17.4411 95.5139 17.9959 94.5417 17.9959H88.7083Z" fill="white"/>
<path d="M85.0622 13.5557V12.4466H80.6872V10.7822H85.7914C86.7637 10.7822 87.2498 11.337 87.2498 12.4466V17.9936H81.4164C80.4441 17.9936 79.958 17.4388 79.958 16.3292V15.2201C79.958 14.1105 80.4441 13.5557 81.4164 13.5557H85.0622ZM82.1455 15.2201V16.3292H85.0622V15.2201H82.1455Z" fill="white"/>
<path d="M71.9378 17.9884C70.9656 17.9884 70.4795 17.4336 70.4795 16.324V8.00195H72.667V16.324H78.5004V17.9884H71.9378Z" fill="white"/>
<path d="M61.7302 12.4535C61.7302 11.3439 62.2163 10.7891 63.1886 10.7891H67.5636C68.5359 10.7891 69.022 11.3439 69.022 12.4535V16.336C69.022 17.4456 68.5359 18.0004 67.5636 18.0004H63.1886C62.2163 18.0004 61.7302 17.4456 61.7302 16.336V12.4535ZM63.9178 12.4535V16.336H66.8345V12.4535H63.9178Z" fill="white"/>
<path d="M58.0827 17.9588V12.4535H55.166V17.9588H52.9785V10.7891H58.8119C59.7842 10.7891 60.2703 11.3439 60.2703 12.4535V17.9588H58.0827Z" fill="white"/>
<path d="M49.3335 17.9588V12.4535H46.4168V17.9588H44.2292V10.7891H50.0627C51.0349 10.7891 51.521 11.3439 51.521 12.4535V17.9588H49.3335Z" fill="white"/>
<path d="M42.7713 18.0004H36.9378C35.9656 18.0004 35.4795 17.4456 35.4795 16.336V12.4535C35.4795 11.3439 35.9656 10.7891 36.9378 10.7891H41.3129C42.2851 10.7891 42.7713 11.3439 42.7713 12.4535V15.227H37.667V16.336H42.7713V18.0004ZM37.667 12.4535V13.5625H40.5837V12.4535H37.667Z" fill="white"/>
<path d="M34.0209 8.00977V9.67417L28.9167 16.3318H34.0209V17.9962H26V16.3318L31.1042 9.67417H26V8.00977H34.0209Z" fill="white"/>
<defs>
<linearGradient id="paint0_linear_2105_1263" x1="0.68" y1="13" x2="102.68" y2="13" gradientUnits="userSpaceOnUse">
<stop stop-color="#00B1FD"/>
<stop offset="1" stop-color="#00D725"/>
</linearGradient>
</defs>
</svg>
